<svg xmlns="http://www.w3.org/2000/svg" width="370.582" height="72.667" viewBox="0 0 370.582 72.667">
  <g id="Grupo_31269" data-name="Grupo 31269" transform="translate(-11.434 613.331)">
    <path id="Caminho_24523" data-name="Caminho 24523" d="M51.4-556.59c-.212.178-.459.366-.728.562h-.006c-.378.275-.8.55-1.255.821a19.766,19.766,0,0,1-9.589,2.759l-.5-.018H39.3a13.1,13.1,0,0,1-2.862-.493,13.185,13.185,0,0,1-2.568-1.061,12.6,12.6,0,0,1-6.536-10.856v-.019h0a10.089,10.089,0,0,1,3.36-7.855,13.243,13.243,0,0,1,8.787-2.911v.01h.042v-.01l11.879.146v18.925Zm15.135-35.282a19.972,19.972,0,0,0-7.5-15.873,25.869,25.869,0,0,0-16.155-5.585h-.042a51.051,51.051,0,0,0-12.5,1.533,56.327,56.327,0,0,0-12.487,5.189l-.55.287.247.566,3.936,9.046.285.659.643-.322a56.912,56.912,0,0,1,9.294-3.87,28.732,28.732,0,0,1,8.421-1.182h0a12.613,12.613,0,0,1,8.067,2.892v0a9.5,9.5,0,0,1,3.508,7.252H51.7v4.016H36.339l-.474.009h0a29.907,29.907,0,0,0-5.448.576,26.283,26.283,0,0,0-5.022,1.508A21.975,21.975,0,0,0,11.434-564.6v.023l0,.455a23.2,23.2,0,0,0,.707,5.254,23.506,23.506,0,0,0,1.812,4.814,24.291,24.291,0,0,0,21,13.227l.7.018v-.154a47.831,47.831,0,0,0,5.3-.253,45.67,45.67,0,0,0,5.17-.837A41.572,41.572,0,0,0,66.478-553.1l.209-.2v-.28l-.155-38.277Z" fill="#002891" fill-rule="evenodd"/>
    <path id="Caminho_24524" data-name="Caminho 24524" d="M217.226-549.462l-4.082-8.432-.3-.611-.611.3-1.292.629c-5.585,2.732-10.57,5.162-17.017,5.027h0c-.23-.006-.476-.013-.733-.031a12.9,12.9,0,0,1-3.951-.912,13.475,13.475,0,0,1-3.4-2.055c-5.332-4.339-8.194-12.677-8.194-20.588v-.877a36.109,36.109,0,0,1,.391-5,35.789,35.789,0,0,1,1.02-4.869c2.215-7.785,6.95-14.089,13.689-14.493l.17-.011a17.244,17.244,0,0,1,2.013.006h0c.68.037,1.388.1,2.115.215a42.65,42.65,0,0,1,11.724,3.792l.576.277.307-.569,4.536-8.436.3-.56-.534-.329-.208-.136h0A41.552,41.552,0,0,0,208.5-609.9a40.329,40.329,0,0,0-5.419-1.924c-9.362-2.579-18.957-1.473-26.056,3.484l-.012.011-.012.015v0a29.467,29.467,0,0,0-3.832,3.18,32.43,32.43,0,0,0-3.274,3.79c-5.135,6.923-7.845,16.072-7.845,25.2,0,.358.011.763.021,1.2v.007a43.551,43.551,0,0,0,.787,7.1,42.579,42.579,0,0,0,1.941,6.881c4.207,11.233,13.135,20.216,25.938,20.328v.006a45.637,45.637,0,0,0,13.886-2.1,53.041,53.041,0,0,0,12.363-5.871l.51-.319Z" transform="translate(-43.188 -0.046)" fill="#002891" fill-rule="evenodd"/>
    <path id="Caminho_24525" data-name="Caminho 24525" d="M109.471-583.361a19.473,19.473,0,0,1,.665-2.341c1.27-3.532,3.542-6.053,7.32-6.053v-.006l.235.006a6.261,6.261,0,0,1,1.834.319,5.739,5.739,0,0,1,1.536.778c2.268,1.6,3.566,4.778,3.935,8.436H109.245c.068-.391.143-.782.226-1.139Zm26.788,23.253-.588-1.189-1.193.57a65.413,65.413,0,0,1-7.1,3.071,21.494,21.494,0,0,1-6.655,1.21h-.017c-.245,0-.5,0-.755,0a10.444,10.444,0,0,1-7.834-4.086c-2.093-2.616-3.42-6.4-3.548-11.1l-.024-.688h29.9l-.015-1.354c-.11-8.5-1.524-15.443-4.815-20.308-3.391-5.006-8.682-7.791-16.5-7.791-.483,0-.989.009-1.512.047a20.652,20.652,0,0,0-5.936,1.2,18.513,18.513,0,0,0-4.836,2.672c-6.981,5.376-9.632,15.388-9.716,24.632l0,.016v.794l0,.014a30.422,30.422,0,0,0,.258,3.626,29.722,29.722,0,0,0,.643,3.512,27.227,27.227,0,0,0,8.418,14.311l.018.013.292.245.017.012a17.593,17.593,0,0,0,3.053,1.994,19.9,19.9,0,0,0,3.362,1.358c5.707,1.761,12.263,1.208,17.52-.295v0a26.94,26.94,0,0,0,5.031-1.905,50.651,50.651,0,0,0,4.994-2.9l1.008-.645-.523-1.06Z" transform="translate(-23.996 -3.315)" fill="#00a6dd" fill-rule="evenodd"/>
    <path id="Caminho_24526" data-name="Caminho 24526" d="M281.139-576.017h2.633l-3.983-6.951a4,4,0,0,0,3.7-4.1,4.3,4.3,0,0,0-4.414-4.268h-4.857v15.323h2.205v-6.93h.8l3.913,6.93ZM278.86-589.61a2.522,2.522,0,0,1,2.424,2.468,2.406,2.406,0,0,1-2.44,2.54l-2.42-.026v-4.982Zm13.209,13.5a6.715,6.715,0,0,0,2.016-.976l-.613-1.257a6.84,6.84,0,0,1-2.989.929c-1.635.044-2.916-1.451-2.822-3.892H293.9c-.048-3.46-1.114-5.616-4.177-5.616-3.2,0-4.287,3.009-4.316,5.71a5.856,5.856,0,0,0,1.856,4.461,5.338,5.338,0,0,0,4.809.641Zm-2.277-9.273c1.21,0,1.827,1.183,1.872,2.563h-3.913c.172-1.381.738-2.563,2.041-2.563Zm6.5,6.685c0,1.97,1.447,3.062,3.956,2.825v-1.377c-1.324-.049-1.849-.31-1.849-1.471v-14.252l-2.107.69V-578.7Zm8.752,2.854a6.584,6.584,0,0,0,4.857-1.883l-.023-6.022a3.4,3.4,0,0,0-3.608-3.272,7.467,7.467,0,0,0-3.866,1.045l.616,1.422a5.781,5.781,0,0,1,2.825-.8,1.831,1.831,0,0,1,1.924,1.707v.737h-2.516a3.528,3.528,0,0,0-3.794,3.457,3.675,3.675,0,0,0,3.585,3.633v-.02Zm2.673-5.439v3.13a3.1,3.1,0,0,1-1.915.713,2.094,2.094,0,0,1-2.065-2.058,1.807,1.807,0,0,1,2.016-1.807l1.964.022Zm8.47,5.483a7.3,7.3,0,0,0,4.056-1.24l-.641-1.324a6.079,6.079,0,0,1-2.92.9c-1.7-.018-2.651-1.989-2.651-3.816-.027-1.919.877-3.978,2.464-4.075a5.524,5.524,0,0,1,2.562.64l.711-1.33a5.2,5.2,0,0,0-5.667-.211,6.07,6.07,0,0,0-2.3,4.977c0,2.636,1.586,5.459,4.385,5.483Zm5.925-.211h2.2v-11.152l-2.222.736.02,10.416Zm-.379-14.09a1.436,1.436,0,0,0,1.446,1.442,1.435,1.435,0,0,0,1.45-1.442,1.406,1.406,0,0,0-1.424-1.444,1.433,1.433,0,0,0-1.446,1.444Zm9.722,14.277c3.373.024,4.956-2.874,4.956-5.765,0-2.847-1.8-5.407-4.907-5.432s-4.933,2.586-4.933,5.432c0,2.892,1.546,5.745,4.884,5.765Zm0-9.512c1.971.119,2.609,1.943,2.609,3.773-.022,1.99-.444,4.123-2.561,4.17-1.946.024-2.583-2.18-2.583-4.2,0-1.827.477-3.6,2.561-3.747Zm13.49,9.324h2.208v-8.069a2.954,2.954,0,0,0-2.512-2.822,6.828,6.828,0,0,0-3.324.2,8.633,8.633,0,0,0-2.864,1.538v9.158h2.206V-584.7a4.113,4.113,0,0,1,2.036-.685,1.987,1.987,0,0,1,2.25,2.131v7.241Zm7.638.168a6.58,6.58,0,0,0,4.861-1.883l-.022-6.022a3.4,3.4,0,0,0-3.605-3.272,7.435,7.435,0,0,0-3.864,1.045l.611,1.422a5.8,5.8,0,0,1,2.829-.8,1.828,1.828,0,0,1,1.92,1.707v.737H352.8A3.531,3.531,0,0,0,349-579.462a3.672,3.672,0,0,0,3.579,3.633v-.02Zm2.676-5.439v3.13a3.106,3.106,0,0,1-1.912.713,2.1,2.1,0,0,1-2.071-2.058,1.808,1.808,0,0,1,2.019-1.807l1.964.022Zm16.082,5.272h2.224v-7.972A3.242,3.242,0,0,0,370.15-587a6.05,6.05,0,0,0-3.292.927,3.787,3.787,0,0,0-2.538-.951c-1.991.049-2.987.668-4.6,1.852v9.158h2.207v-8.732a2.552,2.552,0,0,1,1.352-.615c1.589-.093,2.227.688,2.227,2.134l.019,7.213h2.234v-8.069a2.879,2.879,0,0,0-.071-.663c1.519-1.067,3.654-.922,3.654,1.519v7.213Zm11.024-.1a6.8,6.8,0,0,0,2.014-.976l-.616-1.257a6.823,6.823,0,0,1-2.985.929c-1.637.044-2.917-1.451-2.82-3.892h6.23c-.046-3.46-1.111-5.616-4.174-5.616-3.2,0-4.291,3.009-4.31,5.71a5.811,5.811,0,0,0,1.844,4.461,5.352,5.352,0,0,0,4.816.641Zm-2.275-9.273c1.211,0,1.825,1.183,1.871,2.563h-3.911c.163-1.381.736-2.563,2.041-2.563Zm12.638,9.371h2.207v-8.069a2.956,2.956,0,0,0-2.52-2.822,6.8,6.8,0,0,0-3.317.2,8.53,8.53,0,0,0-2.865,1.538v9.158h2.2V-584.7a4.1,4.1,0,0,1,2.041-.685,1.993,1.993,0,0,1,2.253,2.131v7.241Zm4.978-2.686c0,1.947,1.519,3.044,4.057,2.8v-1.356c-1.332-.07-1.879-.332-1.879-1.492V-585.2h1.879v-1.614h-1.879v-3.556l-2.178.785v2.772h-1.139v1.614h1.139v6.495Zm10.575,2.874c3.368.024,4.96-2.874,4.96-5.765,0-2.847-1.806-5.407-4.913-5.432s-4.931,2.586-4.931,5.432c0,2.892,1.543,5.745,4.884,5.765Zm0-9.512c1.968.119,2.611,1.943,2.611,3.773-.028,1.99-.455,4.123-2.564,4.17-1.945.024-2.582-2.18-2.582-4.2,0-1.827.476-3.6,2.554-3.747Zm18.142,9.535a7.3,7.3,0,0,0,4.053-1.24l-.639-1.324a6.072,6.072,0,0,1-2.919.9c-1.707-.018-2.653-1.989-2.653-3.816-.026-1.919.879-3.978,2.466-4.075a5.533,5.533,0,0,1,2.563.64l.709-1.33a5.194,5.194,0,0,0-5.663-.211,6.063,6.063,0,0,0-2.3,4.977c0,2.636,1.591,5.459,4.389,5.483Zm9.979-.024c3.367.024,4.956-2.874,4.956-5.765,0-2.847-1.8-5.407-4.9-5.432s-4.932,2.586-4.932,5.432c0,2.892,1.534,5.745,4.879,5.765Zm0-9.512c1.966.119,2.61,1.943,2.61,3.773-.024,1.99-.449,4.123-2.557,4.17-1.946.024-2.59-2.18-2.59-4.2,0-1.827.477-3.6,2.561-3.747Zm18.736,9.324h2.232v-7.972A3.245,3.245,0,0,0,453.954-587a6.069,6.069,0,0,0-3.3.927,3.771,3.771,0,0,0-2.532-.951,7.091,7.091,0,0,0-4.6,1.852v9.158h2.205v-8.732a2.554,2.554,0,0,1,1.352-.615c1.587-.093,2.226.688,2.226,2.134l.027,7.213h2.225v-8.069a3.682,3.682,0,0,0-.067-.663c1.514-1.067,3.652-.922,3.652,1.519v7.213ZM281.144-549.222h2.627l-3.98-6.956a4,4,0,0,0,3.7-4.1,4.3,4.3,0,0,0-4.418-4.271h-4.859v15.323h2.209v-6.925h.8l3.919,6.925Zm-2.277-13.594a2.516,2.516,0,0,1,2.416,2.465,2.4,2.4,0,0,1-2.436,2.537l-2.42-.024v-4.978Zm13.205,13.491a6.677,6.677,0,0,0,2.016-.97l-.615-1.26a6.83,6.83,0,0,1-2.984.927c-1.64.046-2.919-1.449-2.827-3.888H293.9c-.051-3.463-1.114-5.619-4.175-5.619-3.2,0-4.289,3.009-4.314,5.715a5.807,5.807,0,0,0,1.853,4.453,5.291,5.291,0,0,0,4.809.641Zm-2.276-9.269c1.212,0,1.822,1.187,1.874,2.562h-3.91c.165-1.375.732-2.562,2.036-2.562Zm9.2,9.654c1.969,0,4.221-1.046,4.27-3.443a2.585,2.585,0,0,0-1.067-2.23,8.363,8.363,0,0,0-1.874-.946c-.64-.235-1.329-.5-1.852-.734-.472-.235-.713-.5-.713-.927,0-.878.857-1.347,1.781-1.347a4.7,4.7,0,0,1,2.374.753l.831-1.441a6.5,6.5,0,0,0-3.276-1.046c-1.872,0-3.793,1.138-3.793,3.294,0,1.921,1.476,2.491,2.941,3.036.307.141.645.284.953.4.661.243,1.512.5,1.538,1.356.026,1.043-1.042,1.541-2.133,1.541a4.457,4.457,0,0,1-2.724-1.023l-.855,1.4a5.979,5.979,0,0,0,3.6,1.354Zm11.122-.022c3.008-.1,4.337-2.753,4.337-5.41-.023-3.01-1.3-5.881-4.317-5.835-3.553.051-4.929,1.848-5.023,1.968v13.761l2.18.776v-5.976a5.422,5.422,0,0,0,2.822.738v-.022Zm-.26-9.562c1.844.076,2.16,2.3,2.16,4.083.022,1.775-.291,3.7-2.257,3.815a4.563,4.563,0,0,1-2.466-.753v-6.433a4.228,4.228,0,0,1,2.563-.735v.024Zm11.426,9.492c3.367.024,4.958-2.877,4.958-5.765,0-2.849-1.806-5.409-4.909-5.434s-4.929,2.586-4.929,5.434c0,2.889,1.541,5.738,4.88,5.765Zm0-9.516c1.971.119,2.609,1.946,2.609,3.771-.023,1.991-.45,4.124-2.56,4.175-1.946.021-2.586-2.185-2.586-4.2,0-1.827.478-3.607,2.563-3.751Zm13.494,9.327h2.2v-8.066a2.951,2.951,0,0,0-2.511-2.826,6.957,6.957,0,0,0-3.317.19,8.66,8.66,0,0,0-2.873,1.544v9.158h2.205v-8.684a4.1,4.1,0,0,1,2.04-.688,1.992,1.992,0,0,1,2.253,2.135v7.237Zm7.444.282c1.971,0,4.226-1.046,4.267-3.443a2.58,2.58,0,0,0-1.064-2.23,8.3,8.3,0,0,0-1.874-.946c-.64-.235-1.329-.5-1.852-.734-.472-.235-.708-.5-.708-.927,0-.878.854-1.347,1.778-1.347a4.7,4.7,0,0,1,2.371.753l.836-1.441A6.5,6.5,0,0,0,342.7-560.3c-1.877,0-3.8,1.138-3.8,3.294,0,1.921,1.475,2.491,2.945,3.036.308.141.638.284.944.4.67.243,1.518.5,1.544,1.356.024,1.043-1.042,1.541-2.133,1.541a4.479,4.479,0,0,1-2.725-1.023l-.859,1.4a5.984,5.984,0,0,0,3.6,1.354Zm9.107-.12a6.55,6.55,0,0,0,4.861-1.877l-.023-6.023a3.4,3.4,0,0,0-3.606-3.272,7.445,7.445,0,0,0-3.867,1.045l.615,1.422a5.824,5.824,0,0,1,2.825-.8,1.826,1.826,0,0,1,1.919,1.7v.736H351.54a3.525,3.525,0,0,0-3.789,3.461,3.671,3.671,0,0,0,3.579,3.635v-.027Zm2.679-5.431v3.13a3.166,3.166,0,0,1-1.922.708,2.091,2.091,0,0,1-2.064-2.057,1.807,1.807,0,0,1,2.019-1.8l1.967.024Zm9.509,5.458c2.846.093,4.315-2.825,4.339-5.843,0-2.65-1.329-5.306-4.339-5.4a5.462,5.462,0,0,0-2.822.728v-6.662l-2.153.737v14.463c.063.12,1.441,1.878,4.976,2v-.024Zm-.357-9.516c1.968.119,2.322,2.021,2.322,3.792,0,1.755-.5,4.034-2.2,4.1a4.143,4.143,0,0,1-2.584-.685v-6.546a4.8,4.8,0,0,1,2.441-.664Zm7.209,9.327h2.2v-11.152l-2.23.738.026,10.413Zm-.376-14.092a1.432,1.432,0,0,0,1.444,1.449,1.435,1.435,0,0,0,1.444-1.449,1.4,1.4,0,0,0-1.42-1.443,1.435,1.435,0,0,0-1.448,1.443Zm5.5,11.4c0,1.971,1.446,3.068,3.957,2.824v-1.377c-1.33-.048-1.851-.309-1.851-1.468v-14.252l-2.106.689v13.583Zm6.019,2.688h2.208v-11.152l-2.231.738.023,10.413Zm-.379-14.092a1.438,1.438,0,0,0,1.445,1.449,1.44,1.44,0,0,0,1.452-1.449,1.4,1.4,0,0,0-1.43-1.443,1.438,1.438,0,0,0-1.444,1.443Zm9.248,14.281a8.224,8.224,0,0,0,5.142-1.929V-566.23l-2.151.738v5.807a7.039,7.039,0,0,0-2.8-.614c-3.039,0-4.456,3.13-4.456,5.665,0,2.444,1.25,5.6,4.289,5.576l-.026.027Zm3.009-8.826v6.4a4.861,4.861,0,0,1-2.489.853c-1.78,0-2.414-2.3-2.414-3.961,0-1.73.66-4.076,2.537-4.076a3.952,3.952,0,0,1,2.365.78Zm7.8,8.8a6.531,6.531,0,0,0,4.858-1.877l-.019-6.023a3.4,3.4,0,0,0-3.6-3.272,7.432,7.432,0,0,0-3.865,1.045l.615,1.422a5.808,5.808,0,0,1,2.822-.8,1.828,1.828,0,0,1,1.922,1.7v.736h-2.511a3.534,3.534,0,0,0-3.8,3.461,3.676,3.676,0,0,0,3.583,3.635v-.027Zm2.68-5.431v3.13a3.153,3.153,0,0,1-1.922.708,2.089,2.089,0,0,1-2.062-2.057,1.806,1.806,0,0,1,2.016-1.8l1.968.024Zm8.442,5.458a8.233,8.233,0,0,0,5.141-1.929V-566.23l-2.151.738v5.807a7.049,7.049,0,0,0-2.8-.614c-3.037,0-4.453,3.13-4.453,5.665,0,2.444,1.253,5.6,4.287,5.576l-.022.027Zm3.006-8.826v6.4a4.87,4.87,0,0,1-2.486.853c-1.777,0-2.421-2.3-2.421-3.961,0-1.73.668-4.076,2.541-4.076a3.943,3.943,0,0,1,2.366.78Zm10.981,8.535a6.694,6.694,0,0,0,2.014-.97l-.61-1.26a6.864,6.864,0,0,1-2.991.927c-1.64.046-2.919-1.449-2.824-3.888h6.237c-.046-3.463-1.114-5.619-4.173-5.619-3.2,0-4.288,3.009-4.317,5.715a5.8,5.8,0,0,0,1.85,4.453,5.3,5.3,0,0,0,4.813.641Zm-2.278-9.269c1.213,0,1.825,1.187,1.873,2.562h-3.909C422.155-557.407,422.723-558.594,424.026-558.594Z" transform="translate(-75.353 -5.836)" fill="#002891"/>
  </g>
</svg>
