<svg xmlns="http://www.w3.org/2000/svg" width="300" height="58.827" viewBox="0 0 300 58.827">
  <g id="Grupo_31300" data-name="Grupo 31300" transform="translate(-11.434 613.331)">
    <path id="Caminho_24523" data-name="Caminho 24523" d="M43.785-567.4c-.171.144-.372.3-.589.455h-.005c-.306.222-.649.445-1.016.665a16,16,0,0,1-7.763,2.233L34-564.059H33.99a10.6,10.6,0,0,1-2.317-.4,10.672,10.672,0,0,1-2.079-.859,10.2,10.2,0,0,1-5.291-8.789v-.016h0a8.168,8.168,0,0,1,2.72-6.359,10.721,10.721,0,0,1,7.114-2.356v.008h.034v-.008l9.617.118V-567.4Zm12.253-28.562a16.168,16.168,0,0,0-6.071-12.85,20.942,20.942,0,0,0-13.078-4.522h-.034a41.332,41.332,0,0,0-10.118,1.241,45.6,45.6,0,0,0-10.109,4.2l-.445.233.2.458,3.187,7.323.23.534.52-.261a46.084,46.084,0,0,1,7.524-3.133,23.26,23.26,0,0,1,6.817-.957h0a10.211,10.211,0,0,1,6.53,2.341v0a7.694,7.694,0,0,1,2.84,5.871H44.03v3.251H31.6l-.384.007h0a24.206,24.206,0,0,0-4.41.466,21.276,21.276,0,0,0-4.066,1.221,17.79,17.79,0,0,0-11.3,16.652v.019l0,.368a18.778,18.778,0,0,0,.572,4.253,19.031,19.031,0,0,0,1.467,3.9,19.665,19.665,0,0,0,17,10.708l.565.015v-.125a38.7,38.7,0,0,0,4.292-.2,36.975,36.975,0,0,0,4.186-.677,33.655,33.655,0,0,0,16.477-8.947l.169-.159v-.226l-.126-30.986Z" fill="#fff" fill-rule="evenodd"/>
    <path id="Caminho_24524" data-name="Caminho 24524" d="M206.717-561.6l-3.3-6.826-.244-.495-.494.241-1.046.509c-4.521,2.211-8.557,4.179-13.776,4.07h0c-.187,0-.386-.011-.594-.025a10.437,10.437,0,0,1-3.2-.738,10.908,10.908,0,0,1-2.754-1.664c-4.316-3.513-6.633-10.263-6.633-16.667v-.71a29.235,29.235,0,0,1,.316-4.05,28.979,28.979,0,0,1,.826-3.942c1.793-6.3,5.626-11.405,11.082-11.732l.137-.009a13.974,13.974,0,0,1,1.629.005h0c.551.03,1.124.084,1.712.174a34.524,34.524,0,0,1,9.491,3.07l.466.225.248-.461,3.672-6.829.241-.453-.432-.266-.169-.11h0a33.644,33.644,0,0,0-4.241-2.243,32.633,32.633,0,0,0-4.387-1.557c-7.579-2.088-15.347-1.192-21.094,2.821l-.01.009-.01.012v0a23.859,23.859,0,0,0-3.1,2.574,26.257,26.257,0,0,0-2.65,3.068,34.653,34.653,0,0,0-6.351,20.4c0,.29.009.618.017.968v.006a35.256,35.256,0,0,0,.637,5.749,34.47,34.47,0,0,0,1.572,5.571c3.406,9.094,10.633,16.366,21,16.456v0a36.947,36.947,0,0,0,11.241-1.7,42.939,42.939,0,0,0,10.008-4.753l.413-.258Z" transform="translate(-63.649 -0.068)" fill="#fff" fill-rule="evenodd"/>
    <path id="Caminho_24525" data-name="Caminho 24525" d="M106.737-586.868a15.768,15.768,0,0,1,.539-1.9c1.028-2.859,2.867-4.9,5.926-4.9v-.005l.191.005a5.068,5.068,0,0,1,1.485.258,4.645,4.645,0,0,1,1.244.63c1.836,1.3,2.886,3.868,3.186,6.829H106.554c.055-.316.115-.633.183-.922Zm21.686,18.825-.476-.963-.965.461a52.963,52.963,0,0,1-5.745,2.486,17.4,17.4,0,0,1-5.388.979h-.014c-.2,0-.4,0-.611,0a8.455,8.455,0,0,1-6.342-3.308,14.9,14.9,0,0,1-2.873-8.984l-.019-.557H130.2l-.012-1.1c-.089-6.879-1.233-12.5-3.9-16.44-2.745-4.053-7.029-6.307-13.359-6.307-.391,0-.8.007-1.224.038a16.719,16.719,0,0,0-4.806.975,14.988,14.988,0,0,0-3.915,2.163c-5.651,4.352-7.8,12.458-7.865,19.941l0,.013V-578l0,.012a24.63,24.63,0,0,0,.209,2.936,24.064,24.064,0,0,0,.521,2.843,22.041,22.041,0,0,0,6.815,11.586l.014.01.237.2.014.01a14.242,14.242,0,0,0,2.472,1.614,16.113,16.113,0,0,0,2.721,1.1,25.824,25.824,0,0,0,14.183-.238v0a21.807,21.807,0,0,0,4.073-1.542,40.991,40.991,0,0,0,4.043-2.345l.816-.522-.423-.858Z" transform="translate(-35.364 -4.885)" fill="#fff" fill-rule="evenodd"/>
    <path id="Caminho_24526" data-name="Caminho 24526" d="M279.821-579.247h2.131l-3.225-5.627a3.242,3.242,0,0,0,3-3.323,3.482,3.482,0,0,0-3.574-3.455h-3.932v12.4H276v-5.61h.65l3.168,5.61Zm-1.845-11a2.042,2.042,0,0,1,1.962,2,1.948,1.948,0,0,1-1.975,2.056L276-586.219v-4.033Zm10.693,10.925a5.436,5.436,0,0,0,1.632-.79l-.5-1.017a5.538,5.538,0,0,1-2.419.752c-1.324.036-2.36-1.175-2.284-3.151h5.048c-.039-2.8-.9-4.546-3.381-4.546-2.587,0-3.471,2.435-3.494,4.622a4.741,4.741,0,0,0,1.5,3.612,4.322,4.322,0,0,0,3.893.519Zm-1.843-7.507c.98,0,1.479.957,1.516,2.075h-3.168c.139-1.118.6-2.075,1.652-2.075Zm5.262,5.412c0,1.595,1.171,2.479,3.2,2.287v-1.114c-1.072-.04-1.5-.251-1.5-1.191v-11.538l-1.706.558v11Zm7.085,2.31a5.33,5.33,0,0,0,3.932-1.524l-.018-4.875a2.752,2.752,0,0,0-2.921-2.649,6.045,6.045,0,0,0-3.13.846l.5,1.151a4.681,4.681,0,0,1,2.287-.651,1.482,1.482,0,0,1,1.557,1.382v.6h-2.037a2.856,2.856,0,0,0-3.072,2.8,2.975,2.975,0,0,0,2.9,2.941v-.016Zm2.164-4.4v2.534a2.509,2.509,0,0,1-1.55.577,1.7,1.7,0,0,1-1.672-1.666,1.463,1.463,0,0,1,1.632-1.463l1.59.018Zm6.857,4.439a5.912,5.912,0,0,0,3.283-1l-.519-1.072a4.921,4.921,0,0,1-2.364.726c-1.38-.014-2.146-1.61-2.146-3.089-.022-1.553.71-3.22,1.994-3.3a4.472,4.472,0,0,1,2.074.518l.576-1.077a4.211,4.211,0,0,0-4.588-.171,4.914,4.914,0,0,0-1.86,4.029c0,2.134,1.284,4.419,3.55,4.439Zm4.8-.171h1.783v-9.028l-1.8.6.016,8.432Zm-.307-11.406a1.163,1.163,0,0,0,1.171,1.167,1.162,1.162,0,0,0,1.174-1.167,1.138,1.138,0,0,0-1.152-1.169,1.16,1.16,0,0,0-1.17,1.169Zm7.87,11.558c2.731.019,4.012-2.326,4.012-4.667,0-2.3-1.459-4.377-3.973-4.4s-3.993,2.093-3.993,4.4c0,2.341,1.251,4.651,3.954,4.667Zm0-7.7c1.6.1,2.112,1.573,2.112,3.054-.018,1.611-.36,3.337-2.073,3.375-1.575.02-2.091-1.765-2.091-3.4,0-1.479.386-2.917,2.073-3.033Zm10.921,7.548h1.787v-6.532a2.391,2.391,0,0,0-2.034-2.285,5.527,5.527,0,0,0-2.691.158,6.987,6.987,0,0,0-2.318,1.245v7.414H328v-7.032a3.329,3.329,0,0,1,1.648-.554,1.609,1.609,0,0,1,1.821,1.725v5.862Zm6.183.136a5.327,5.327,0,0,0,3.935-1.524l-.018-4.875a2.751,2.751,0,0,0-2.919-2.649,6.019,6.019,0,0,0-3.128.846l.494,1.151a4.692,4.692,0,0,1,2.29-.651,1.48,1.48,0,0,1,1.554,1.382v.6H337.83a2.858,2.858,0,0,0-3.071,2.8,2.973,2.973,0,0,0,2.9,2.941v-.016Zm2.166-4.4v2.534a2.515,2.515,0,0,1-1.548.577,1.7,1.7,0,0,1-1.677-1.666,1.464,1.464,0,0,1,1.635-1.463l1.59.018Zm13.019,4.268h1.8V-585.7a2.625,2.625,0,0,0-2.764-2.439,4.9,4.9,0,0,0-2.665.75,3.066,3.066,0,0,0-2.054-.77,5.749,5.749,0,0,0-3.725,1.5v7.414h1.787v-7.069a2.066,2.066,0,0,1,1.094-.5c1.286-.075,1.8.557,1.8,1.728l.015,5.839h1.808v-6.532a2.331,2.331,0,0,0-.058-.537c1.229-.864,2.958-.747,2.958,1.23v5.839Zm8.924-.08a5.5,5.5,0,0,0,1.631-.79l-.5-1.017a5.524,5.524,0,0,1-2.416.752c-1.325.036-2.361-1.175-2.283-3.151h5.044c-.037-2.8-.9-4.546-3.379-4.546-2.591,0-3.474,2.435-3.489,4.622a4.7,4.7,0,0,0,1.493,3.612,4.333,4.333,0,0,0,3.9.519Zm-1.841-7.507c.98,0,1.478.957,1.515,2.075h-3.166c.132-1.118.6-2.075,1.652-2.075Zm10.231,7.586h1.786v-6.532a2.393,2.393,0,0,0-2.04-2.285,5.5,5.5,0,0,0-2.686.158,6.9,6.9,0,0,0-2.319,1.245v7.414h1.782v-7.032a3.322,3.322,0,0,1,1.652-.554,1.613,1.613,0,0,1,1.824,1.725v5.862Zm4.03-2.174c0,1.576,1.23,2.464,3.284,2.27v-1.1c-1.078-.057-1.521-.269-1.521-1.207v-5.223h1.521v-1.307H375.95v-2.879l-1.763.635v2.244h-.922v1.307h.922v5.258Zm8.561,2.326c2.727.019,4.015-2.326,4.015-4.667,0-2.3-1.462-4.377-3.977-4.4s-3.992,2.093-3.992,4.4c0,2.341,1.249,4.651,3.954,4.667Zm0-7.7c1.593.1,2.114,1.573,2.114,3.054-.023,1.611-.368,3.337-2.076,3.375-1.575.02-2.09-1.765-2.09-3.4,0-1.479.386-2.917,2.068-3.033Zm14.686,7.719a5.909,5.909,0,0,0,3.281-1l-.517-1.072a4.915,4.915,0,0,1-2.363.726c-1.382-.014-2.148-1.61-2.148-3.089-.021-1.553.712-3.22,2-3.3a4.479,4.479,0,0,1,2.075.518l.574-1.077a4.205,4.205,0,0,0-4.585-.171,4.908,4.908,0,0,0-1.865,4.029c0,2.134,1.288,4.419,3.553,4.439Zm8.078-.019c2.726.019,4.012-2.326,4.012-4.667,0-2.3-1.459-4.377-3.969-4.4s-3.993,2.093-3.993,4.4c0,2.341,1.242,4.651,3.95,4.667Zm0-7.7c1.591.1,2.113,1.573,2.113,3.054-.019,1.611-.363,3.337-2.07,3.375-1.575.02-2.1-1.765-2.1-3.4,0-1.479.386-2.917,2.073-3.033Zm15.167,7.548h1.807V-585.7a2.627,2.627,0,0,0-2.765-2.439,4.912,4.912,0,0,0-2.674.75,3.053,3.053,0,0,0-2.05-.77,5.74,5.74,0,0,0-3.726,1.5v7.414h1.785v-7.069a2.068,2.068,0,0,1,1.095-.5c1.285-.075,1.8.557,1.8,1.728l.022,5.839h1.8v-6.532a2.98,2.98,0,0,0-.054-.537c1.226-.864,2.956-.747,2.956,1.23v5.839ZM279.825-557.556h2.127l-3.222-5.631a3.238,3.238,0,0,0,3-3.316,3.482,3.482,0,0,0-3.576-3.458h-3.934v12.4h1.788v-5.606h.647l3.172,5.606Zm-1.844-11a2.037,2.037,0,0,1,1.956,2,1.943,1.943,0,0,1-1.972,2.054l-1.959-.02v-4.03Zm10.69,10.922a5.406,5.406,0,0,0,1.632-.785l-.5-1.02a5.529,5.529,0,0,1-2.416.75c-1.327.037-2.363-1.173-2.288-3.147h5.05c-.042-2.8-.9-4.549-3.38-4.549-2.587,0-3.472,2.436-3.493,4.627a4.7,4.7,0,0,0,1.5,3.605,4.283,4.283,0,0,0,3.893.519Zm-1.842-7.5c.981,0,1.475.961,1.517,2.074h-3.165c.134-1.113.592-2.074,1.648-2.074Zm7.448,7.815c1.594,0,3.417-.847,3.457-2.787a2.092,2.092,0,0,0-.864-1.806,6.769,6.769,0,0,0-1.517-.766c-.518-.191-1.076-.405-1.5-.594-.382-.19-.577-.4-.577-.751,0-.711.694-1.09,1.442-1.09a3.806,3.806,0,0,1,1.922.61l.673-1.166a5.265,5.265,0,0,0-2.652-.846,2.818,2.818,0,0,0-3.071,2.667c0,1.555,1.2,2.016,2.381,2.457.248.114.522.23.771.323.535.2,1.224.406,1.245,1.1.021.844-.844,1.247-1.727,1.247a3.608,3.608,0,0,1-2.205-.828l-.692,1.136a4.84,4.84,0,0,0,2.915,1.1Zm9-.018c2.435-.079,3.511-2.229,3.511-4.38-.018-2.437-1.053-4.761-3.5-4.724-2.877.041-3.99,1.5-4.066,1.593v11.14l1.765.628v-4.838a4.389,4.389,0,0,0,2.285.6v-.018Zm-.21-7.741c1.493.061,1.748,1.864,1.748,3.305.018,1.437-.236,2.993-1.827,3.088a3.694,3.694,0,0,1-2-.61v-5.208a3.423,3.423,0,0,1,2.075-.6v.02Zm9.249,7.684c2.725.02,4.014-2.329,4.014-4.667,0-2.306-1.462-4.379-3.974-4.4s-3.99,2.093-3.99,4.4c0,2.339,1.248,4.645,3.951,4.667Zm0-7.7c1.6.1,2.112,1.576,2.112,3.053-.018,1.612-.364,3.339-2.072,3.38-1.576.017-2.094-1.769-2.094-3.4,0-1.479.387-2.92,2.075-3.037Zm10.924,7.551h1.784v-6.53a2.389,2.389,0,0,0-2.033-2.288,5.632,5.632,0,0,0-2.686.154,7.009,7.009,0,0,0-2.326,1.25v7.414h1.785v-7.03a3.317,3.317,0,0,1,1.651-.557,1.613,1.613,0,0,1,1.824,1.728v5.859Zm6.026.228c1.6,0,3.421-.847,3.455-2.787a2.088,2.088,0,0,0-.862-1.806,6.719,6.719,0,0,0-1.517-.766c-.518-.191-1.076-.405-1.5-.594-.382-.19-.573-.4-.573-.751,0-.711.692-1.09,1.439-1.09a3.809,3.809,0,0,1,1.919.61l.677-1.166a5.26,5.26,0,0,0-2.652-.846,2.821,2.821,0,0,0-3.076,2.667c0,1.555,1.194,2.016,2.384,2.457.249.114.517.23.764.323.543.2,1.229.406,1.25,1.1.02.844-.844,1.247-1.726,1.247a3.626,3.626,0,0,1-2.206-.828l-.7,1.136a4.844,4.844,0,0,0,2.918,1.1Zm7.373-.1a5.3,5.3,0,0,0,3.935-1.52l-.018-4.876a2.749,2.749,0,0,0-2.919-2.649,6.026,6.026,0,0,0-3.131.846l.5,1.151a4.715,4.715,0,0,1,2.287-.648,1.478,1.478,0,0,1,1.554,1.378v.6h-2.036a2.853,2.853,0,0,0-3.067,2.8,2.972,2.972,0,0,0,2.9,2.942v-.022Zm2.169-4.4v2.534a2.564,2.564,0,0,1-1.556.573,1.693,1.693,0,0,1-1.671-1.665,1.463,1.463,0,0,1,1.635-1.461l1.592.02Zm7.7,4.419c2.3.075,3.493-2.287,3.513-4.73,0-2.146-1.076-4.3-3.513-4.37a4.422,4.422,0,0,0-2.285.59v-5.393l-1.743.6V-559c.051.1,1.167,1.52,4.028,1.618v-.02Zm-.289-7.7c1.593.1,1.879,1.636,1.879,3.07s-.4,3.266-1.784,3.321a3.354,3.354,0,0,1-2.092-.554v-5.3a3.888,3.888,0,0,1,1.976-.538Zm5.836,7.551h1.784v-9.028l-1.806.6.021,8.43Zm-.3-11.408a1.159,1.159,0,0,0,1.169,1.173,1.161,1.161,0,0,0,1.169-1.173,1.134,1.134,0,0,0-1.15-1.168,1.162,1.162,0,0,0-1.172,1.168Zm4.452,9.233c0,1.6,1.17,2.483,3.2,2.286v-1.114c-1.077-.039-1.5-.25-1.5-1.188v-11.537l-1.705.558v11Zm4.873,2.176h1.788v-9.028l-1.806.6.018,8.43Zm-.307-11.408a1.164,1.164,0,0,0,1.17,1.173,1.166,1.166,0,0,0,1.176-1.173,1.137,1.137,0,0,0-1.158-1.168,1.164,1.164,0,0,0-1.169,1.168Zm7.487,11.561a6.658,6.658,0,0,0,4.163-1.561v-12.36l-1.741.6v4.7a5.7,5.7,0,0,0-2.265-.5c-2.46,0-3.608,2.534-3.608,4.586,0,1.978,1.012,4.536,3.472,4.514l-.021.022Zm2.436-7.145v5.184a3.935,3.935,0,0,1-2.015.691c-1.441,0-1.954-1.861-1.954-3.206,0-1.4.534-3.3,2.054-3.3a3.2,3.2,0,0,1,1.915.631Zm6.317,7.123a5.287,5.287,0,0,0,3.933-1.52l-.016-4.876a2.749,2.749,0,0,0-2.918-2.649,6.016,6.016,0,0,0-3.129.846l.5,1.151a4.7,4.7,0,0,1,2.284-.648,1.48,1.48,0,0,1,1.556,1.378v.6h-2.033a2.861,2.861,0,0,0-3.075,2.8,2.976,2.976,0,0,0,2.9,2.942v-.022Zm2.169-4.4v2.534a2.553,2.553,0,0,1-1.556.573,1.691,1.691,0,0,1-1.669-1.665,1.462,1.462,0,0,1,1.632-1.461l1.593.02Zm6.834,4.419a6.665,6.665,0,0,0,4.162-1.561v-12.36l-1.741.6v4.7a5.707,5.707,0,0,0-2.269-.5c-2.459,0-3.6,2.534-3.6,4.586,0,1.978,1.014,4.536,3.471,4.514l-.018.022Zm2.434-7.145v5.184a3.941,3.941,0,0,1-2.013.691c-1.439,0-1.96-1.861-1.96-3.206,0-1.4.541-3.3,2.057-3.3a3.192,3.192,0,0,1,1.915.631Zm8.89,6.909a5.419,5.419,0,0,0,1.631-.785l-.494-1.02a5.556,5.556,0,0,1-2.422.75c-1.327.037-2.363-1.173-2.286-3.147h5.049c-.038-2.8-.9-4.549-3.378-4.549-2.592,0-3.471,2.436-3.494,4.627a4.7,4.7,0,0,0,1.5,3.605,4.289,4.289,0,0,0,3.9.519Zm-1.844-7.5c.982,0,1.478.961,1.516,2.074h-3.164C393.979-564.182,394.438-565.143,395.494-565.143Z" transform="translate(-111.051 -8.602)" fill="#fff"/>
  </g>
</svg>
