<svg xmlns="http://www.w3.org/2000/svg" width="279" height="563.113" viewBox="0 0 279 563.113">
  <g id="Grupo_31317" data-name="Grupo 31317" transform="translate(4230.881 1424.412)">
    <g id="Grupo_31314" data-name="Grupo 31314" transform="translate(-4230.125 -1424.412)">
      <path id="Retângulo_771" data-name="Retângulo 771" d="M0,0H73.626a65.118,65.118,0,0,1,65.118,65.118v9.215a64.412,64.412,0,0,1-64.412,64.412H65.118A65.118,65.118,0,0,1,0,73.626V0A0,0,0,0,1,0,0Z" transform="translate(138.744)" fill="#ff5174"/>
      <path id="Retângulo_772" data-name="Retângulo 772" d="M65.118,0h9.215a64.412,64.412,0,0,1,64.412,64.412v9.215a65.118,65.118,0,0,1-65.118,65.118H0a0,0,0,0,1,0,0V65.118A65.118,65.118,0,0,1,65.118,0Z" transform="translate(138.744 138.744) rotate(-180)" fill="#433487"/>
      <g id="Grupo_31312" data-name="Grupo 31312" transform="translate(175.982 37.238)">
        <g id="Grupo_31311" data-name="Grupo 31311">
          <path id="Caminho_24533" data-name="Caminho 24533" d="M-4033.922-1389.647h-31.958v31.958a32.31,32.31,0,0,0,32.309,32.31h0a31.959,31.959,0,0,0,31.959-31.959h0A32.31,32.31,0,0,0-4033.922-1389.647Z" transform="translate(4065.881 1389.647)" fill="#fece62"/>
        </g>
      </g>
      <g id="Grupo_31313" data-name="Grupo 31313" transform="translate(37.237 37.238)">
        <path id="Caminho_24534" data-name="Caminho 24534" d="M-4163.1-1389.647h31.958v31.958a32.309,32.309,0,0,1-32.309,32.31h0a31.96,31.96,0,0,1-31.959-31.959h0A32.31,32.31,0,0,1-4163.1-1389.647Z" transform="translate(4195.411 1389.647)" fill="#ff5174"/>
      </g>
    </g>
    <g id="Grupo_31315" data-name="Grupo 31315" transform="translate(-4230.881 -1285.667)">
      <path id="Caminho_24535" data-name="Caminho 24535" d="M-3951.881-1294.882a139.5,139.5,0,0,1-139.5,139.5,139.5,139.5,0,0,1-139.5-139.5Z" transform="translate(4230.881 1294.882)" fill="#ffb901"/>
      <circle id="Elipse_3" data-name="Elipse 3" cx="34.12" cy="34.12" r="34.12" transform="translate(105.38 35.63)" fill="#ff5174"/>
    </g>
    <path id="Caminho_24536" data-name="Caminho 24536" d="M-4230.881-1025.147a139.5,139.5,0,0,1,139.5-139.5,139.5,139.5,0,0,1,139.5,139.5Z" transform="translate(0 18.479)" fill="#433485"/>
    <g id="Grupo_31316" data-name="Grupo 31316" transform="translate(-4230.881 -1006.668)">
      <path id="Caminho_24537" data-name="Caminho 24537" d="M-4086.214-889.042l-144.667-145.369v145.369Z" transform="translate(4230.881 1034.412)" fill="#01b2e4"/>
      <rect id="Retângulo_773" data-name="Retângulo 773" width="102.792" height="102.792" transform="translate(71.982 72.685) rotate(-45)" fill="#ffb901"/>
    </g>
  </g>
</svg>
