<svg xmlns="http://www.w3.org/2000/svg" width="40" height="40" viewBox="0 0 40 40">
  <g id="Grupo_31403" data-name="Grupo 31403" transform="translate(-1246 -3903)">
    <g id="Componente_3" data-name="Componente 3" transform="translate(1246 3903)">
      <path id="Caminho_934" data-name="Caminho 934" d="M758.256,560.354a20,20,0,1,1,20-20A20.024,20.024,0,0,1,758.256,560.354Zm0-38.788a18.788,18.788,0,1,0,18.788,18.788A18.809,18.809,0,0,0,758.256,521.566Z" transform="translate(-738.256 -520.354)" fill="#ff5174"/>
    </g>
    <g id="Grupo_31393" data-name="Grupo 31393" transform="translate(703.13 3792)">
      <g id="Grupo_31387" data-name="Grupo 31387" transform="translate(550.87 125.48)">
        <path id="Caminho_24597" data-name="Caminho 24597" d="M563.271,147.006l-.25-.03c-5.857-.7-10.028-5-12.065-12.426l-.086-.316.247-.215a19.033,19.033,0,0,1,6.451-3.533l.327.993a18.247,18.247,0,0,0-5.841,3.115c1.913,6.681,5.652,10.584,10.838,11.311a4.738,4.738,0,0,0,1.084-1.734l.988.342a5.973,5.973,0,0,1-1.515,2.317Z" transform="translate(-550.87 -130.486)" fill="#fff"/>
      </g>
      <g id="Grupo_31388" data-name="Grupo 31388" transform="translate(555.174 133.255)">
        <path id="Caminho_24598" data-name="Caminho 24598" d="M560.6,147.295a1.44,1.44,0,0,1-1.492-.826l.989-.338,0,0a1.484,1.484,0,0,0,1.252-.007,1.932,1.932,0,0,0,1.046-.756l1.033.134c-.048.575-.828,1.3-1.741,1.61A3.414,3.414,0,0,1,560.6,147.295Z" transform="translate(-559.106 -145.364)" fill="#fff"/>
      </g>
      <g id="Grupo_31389" data-name="Grupo 31389" transform="translate(558.69 120)">
        <path id="Caminho_24599" data-name="Caminho 24599" d="M574.282,139.916l-.227-.109c-6.37-3.066-8.726-8.208-8.134-17.749l.02-.327.3-.124a20.9,20.9,0,0,1,16.073,0l.3.124.02.327c.593,9.541-1.764,14.683-8.134,17.749Zm-7.337-17.463c-.482,8.715,1.659,13.473,7.337,16.3,5.677-2.828,7.818-7.586,7.337-16.3a19.82,19.82,0,0,0-14.673,0Z" transform="translate(-565.833 -120)" fill="#fff"/>
      </g>
      <g id="Grupo_31390" data-name="Grupo 31390" transform="translate(562.914 131.932)">
        <path id="Caminho_24600" data-name="Caminho 24600" d="M578.141,147.1c-2.093,0-3.753-2.351-4.12-3.208a.721.721,0,0,1,.049-.808l.237-.249.357.117a12.579,12.579,0,0,0,6.953,0l.323-.12.271.252a.721.721,0,0,1,.049.808C581.894,144.75,580.235,147.1,578.141,147.1Zm-2.71-2.864a2.928,2.928,0,0,0,5.419,0,16.4,16.4,0,0,1-2.7.251A16.564,16.564,0,0,1,575.431,144.237Z" transform="translate(-573.917 -142.833)" fill="#fff"/>
      </g>
      <g id="Grupo_31391" data-name="Grupo 31391" transform="translate(567.661 126.794)">
        <path id="Caminho_24601" data-name="Caminho 24601" d="M588.749,135.09H587.7a2.545,2.545,0,0,0-2.09-1.045c-.968,0-1.568.542-1.568,1.045H583a2.359,2.359,0,0,1,2.613-2.09C587.137,133,588.749,134.074,588.749,135.09Z" transform="translate(-583 -133)" fill="#fff"/>
      </g>
      <g id="Grupo_31392" data-name="Grupo 31392" transform="translate(560.867 126.794)">
        <path id="Caminho_24602" data-name="Caminho 24602" d="M571.045,135.1,570,135.09c0-1.016,1.612-2.09,3.136-2.09a2.359,2.359,0,0,1,2.613,2.09H574.7c0-.5-.6-1.045-1.568-1.045A2.531,2.531,0,0,0,571.045,135.1Z" transform="translate(-570 -133)" fill="#fff"/>
      </g>
    </g>
  </g>
</svg>
