<svg xmlns="http://www.w3.org/2000/svg" width="40" height="40" viewBox="0 0 40 40">
  <g id="Grupo_31402" data-name="Grupo 31402" transform="translate(-873 -3903)">
    <path id="Caminho_934" data-name="Caminho 934" d="M758.256,560.354a20,20,0,1,1,20-20A20.024,20.024,0,0,1,758.256,560.354Zm0-38.788a18.788,18.788,0,1,0,18.788,18.788A18.809,18.809,0,0,0,758.256,521.566Z" transform="translate(134.744 3382.646)" fill="#ff5174"/>
    <g id="Grupo_31384" data-name="Grupo 31384" transform="translate(2336.542 2078.329)">
      <path id="Caminho_24570" data-name="Caminho 24570" d="M-1426.738,1924.234a12.858,12.858,0,0,0-4.645-1.683,1.049,1.049,0,0,0-.919.352,1.05,1.05,0,0,0-.224.96,3.49,3.49,0,0,0,.873,1.512.276.276,0,0,0,.171.084c.016,0,1.3.131,2.985.131.454,0,.938-.01,1.435-.033a.705.705,0,0,0,.657-.542A.7.7,0,0,0-1426.738,1924.234Zm-.2.652a.152.152,0,0,1-.147.122,33.057,33.057,0,0,1-4.235-.086,2.9,2.9,0,0,1-.671-1.2.492.492,0,0,1,.106-.456.489.489,0,0,1,.436-.167,12.31,12.31,0,0,1,4.437,1.613A.151.151,0,0,1-1426.939,1924.885Z" transform="translate(-22.552 -79.327)" fill="#fff"/>
      <path id="Caminho_24571" data-name="Caminho 24571" d="M-1256.165,1924.232a.7.7,0,0,0-.334.781.705.705,0,0,0,.657.542c.5.024.981.033,1.435.033,1.69,0,2.969-.13,2.985-.131a.276.276,0,0,0,.171-.084,3.49,3.49,0,0,0,.873-1.512,1.051,1.051,0,0,0-.224-.96,1.048,1.048,0,0,0-.919-.352A12.86,12.86,0,0,0-1256.165,1924.232Zm5.148-.968a.492.492,0,0,1,.106.456,2.9,2.9,0,0,1-.67,1.2,33.062,33.062,0,0,1-4.236.086.152.152,0,0,1-.147-.122.15.15,0,0,1,.074-.174,12.308,12.308,0,0,1,4.437-1.613A.489.489,0,0,1-1251.016,1923.264Z" transform="translate(-181.475 -79.326)" fill="#fff"/>
      <path id="Caminho_24572" data-name="Caminho 24572" d="M-1429.387,1839.972a1.472,1.472,0,0,0-1.471-1.471h-2.1a.275.275,0,0,0-.276.276v1.5h-.241c-.322-1.181-1.213-4-2.606-4.982a.274.274,0,0,0-.12-.048,65.7,65.7,0,0,0-7.006-.574.253.253,0,0,0-.036,0h-.444a.257.257,0,0,0-.036,0,65.711,65.711,0,0,0-7.006.574.273.273,0,0,0-.12.048c-1.393.983-2.284,3.8-2.606,4.982h-.241v-1.5a.275.275,0,0,0-.276-.276h-2.1a1.472,1.472,0,0,0-1.471,1.471,1.483,1.483,0,0,0,1.481,1.481h1.028a12.854,12.854,0,0,0-1.314.946,2.011,2.011,0,0,0-.736,1.559v9.673a1.042,1.042,0,0,0,1.04,1.041h2.728a1.042,1.042,0,0,0,1.04-1.041v-1.649h17.619v1.649a1.042,1.042,0,0,0,1.04,1.041h2.728a1.042,1.042,0,0,0,1.041-1.041v-9.673a2.01,2.01,0,0,0-.736-1.559,12.846,12.846,0,0,0-1.313-.946h1.028A1.483,1.483,0,0,0-1429.387,1839.972Zm-21.2-4.187a63.558,63.558,0,0,1,7.119-.561,63.558,63.558,0,0,1,7.119.561c1.273.96,2.122,3.82,2.383,4.8h-19C-1452.706,1839.605-1451.858,1836.745-1450.584,1835.785Zm-5.478,5.116a.931.931,0,0,1-.93-.929.92.92,0,0,1,.919-.919h1.823v1.5a.276.276,0,0,0,.276.276h.062l-.145.072Zm3.236,12.729a.49.49,0,0,1-.489.489h-2.728a.49.49,0,0,1-.489-.489v-1.953a1.42,1.42,0,0,0,.877.3h2.829Zm9.139-2.2h-7.84v-.917a2.315,2.315,0,0,1,2.312-2.312h11.5a2.315,2.315,0,0,1,2.312,2.312v.917h-8.284Zm12.8,2.689h-2.728a.49.49,0,0,1-.489-.489v-1.649h2.829a1.42,1.42,0,0,0,.877-.3v1.953A.49.49,0,0,1-1430.887,1854.12Zm.489-10.162v6.6a.878.878,0,0,1-.877.877h-3.577v-.917a2.866,2.866,0,0,0-2.863-2.863h-11.5a2.866,2.866,0,0,0-2.863,2.863v.917h-3.576a.878.878,0,0,1-.877-.877v-6.6a1.461,1.461,0,0,1,.535-1.133,11.607,11.607,0,0,1,2.733-1.683h19.6a11.607,11.607,0,0,1,2.733,1.683A1.462,1.462,0,0,1-1430.4,1843.957Zm-2.621-3.128h.062a.276.276,0,0,0,.276-.276v-1.5h1.824a.92.92,0,0,1,.919.919.931.931,0,0,1-.93.929h-2.006Z" fill="#fff"/>
    </g>
  </g>
</svg>
