<svg xmlns="http://www.w3.org/2000/svg" width="40" height="40" viewBox="0 0 40 40">
  <g id="Grupo_31406" data-name="Grupo 31406" transform="translate(-873 -4017)">
    <path id="Caminho_931" data-name="Caminho 931" d="M758.256,560.354a20,20,0,1,1,20-20A20.024,20.024,0,0,1,758.256,560.354Zm0-38.788a18.788,18.788,0,1,0,18.788,18.788A18.809,18.809,0,0,0,758.256,521.566Z" transform="translate(134.744 3496.646)" fill="#ff5174"/>
    <g id="Grupo_31380" data-name="Grupo 31380" transform="translate(2381.564 2867.165)">
      <path id="Caminho_24556" data-name="Caminho 24556" d="M-1450.442,1240.586a.24.24,0,0,0,.24-.24.24.24,0,0,0-.24-.24h-11.577a.241.241,0,0,0-.24.24.24.24,0,0,0,.24.24Z" transform="translate(-37.801 -72.547)" fill="#fff"/>
      <path id="Caminho_24557" data-name="Caminho 24557" d="M-1474.865,1169.649h-.086l-2.9-4.253a1.3,1.3,0,0,0-1.076-.569h-3.547v-2.571a1.423,1.423,0,0,0-1.422-1.422h-14.278a1.424,1.424,0,0,0-1.422,1.422v2.75h-3.729a.24.24,0,0,0-.24.24.24.24,0,0,0,.24.24h11.577a.24.24,0,0,0,.24-.24.24.24,0,0,0-.24-.24h-7.368v-2.75a.942.942,0,0,1,.941-.941h14.278a.942.942,0,0,1,.941.941v12.382a.942.942,0,0,1-.941.941h-6.018a.236.236,0,0,0-.112.028,2.462,2.462,0,0,0-2.449-2.247,2.462,2.462,0,0,0-2.451,2.264.238.238,0,0,0-.139-.045h-3.11a.942.942,0,0,1-.941-.941v-4.047h7.368a.24.24,0,0,0,.24-.24.24.24,0,0,0-.24-.24h-11.577a.24.24,0,0,0-.24.24.24.24,0,0,0,.24.24h3.729v4.047a1.423,1.423,0,0,0,1.422,1.422h3.11a.238.238,0,0,0,.139-.045,2.462,2.462,0,0,0,2.451,2.264,2.462,2.462,0,0,0,2.449-2.247.242.242,0,0,0,.112.028h9.1a2.462,2.462,0,0,0,2.447,2.219,2.463,2.463,0,0,0,2.447-2.219h1.051a1.3,1.3,0,0,0,1.3-1.3v-3.807A1.3,1.3,0,0,0-1474.865,1169.649Zm-17.608,8.149a1.98,1.98,0,0,1-1.978-1.978,1.98,1.98,0,0,1,1.978-1.978,1.98,1.98,0,0,1,1.978,1.978A1.98,1.98,0,0,1-1492.474,1177.8Zm14.109,0a1.98,1.98,0,0,1-1.978-1.978,1.981,1.981,0,0,1,1.978-1.978,1.981,1.981,0,0,1,1.979,1.978A1.981,1.981,0,0,1-1478.364,1177.8Zm4.32-3.04a.822.822,0,0,1-.821.822h-1.051a2.463,2.463,0,0,0-2.447-2.219,2.462,2.462,0,0,0-2.447,2.219h-2.021a1.415,1.415,0,0,0,.359-.941v-9.33h3.547a.82.82,0,0,1,.678.359l2.714,3.981h-3.873a.822.822,0,0,1-.821-.821v-1.674a.24.24,0,0,0-.24-.24.24.24,0,0,0-.24.24v1.674a1.3,1.3,0,0,0,1.3,1.3h4.541a.823.823,0,0,1,.821.821Z" transform="translate(0)" fill="#fff"/>
    </g>
  </g>
</svg>
