<svg xmlns="http://www.w3.org/2000/svg" width="40" height="40" viewBox="0 0 40 40">
  <g id="Grupo_31396" data-name="Grupo 31396" transform="translate(-873 -3732)">
    <g id="Grupo_31395" data-name="Grupo 31395">
      <path id="Caminho_930" data-name="Caminho 930" d="M758.256,560.354a20,20,0,1,1,20-20A20.024,20.024,0,0,1,758.256,560.354Zm0-38.788a18.788,18.788,0,1,0,18.788,18.788A18.809,18.809,0,0,0,758.256,521.566Z" transform="translate(134.744 3211.646)" fill="#ff5174"/>
    </g>
    <g id="Grupo_31394" data-name="Grupo 31394" transform="translate(-782.464 3534.499)">
      <path id="Caminho_24603" data-name="Caminho 24603" d="M1677.948,229.339h-9.467a1.176,1.176,0,0,1-1.159-1.375l.8-4.622a1.771,1.771,0,0,0-.364-1.41,16.28,16.28,0,0,1-2.888-5.289,8.674,8.674,0,0,1-.325-3.715,7.307,7.307,0,0,1,1.786-3.786,10.33,10.33,0,0,1,4.294-2.975,11.662,11.662,0,0,1,4.259-.662,10.373,10.373,0,0,1,4.075.927,10.115,10.115,0,0,1,3.37,2.467c1.193,1.33,1.659,2.542,1.386,3.6l-.068.263a1.44,1.44,0,0,0,.249,1.234l2.411,3.182a.785.785,0,0,1-.32,1.2l-1.058.448a.225.225,0,0,0-.12.292l.468,1.133a.445.445,0,0,1-.153.534l-.414.3.372.45a.449.449,0,0,1-.012.583l-.308.343a1.027,1.027,0,0,0-.186,1.068,2.149,2.149,0,0,1-.672,2.5l-.027.021a2.148,2.148,0,0,1-1.356.448l-2.481-.052a.656.656,0,0,0-.659.531l-.278,1.414A1.178,1.178,0,0,1,1677.948,229.339Zm-3.361-23.323a10.149,10.149,0,0,0-7.872,3.465c-3.905,4.478-.294,9.974,1.44,12.13a2.285,2.285,0,0,1,.47,1.819l-.8,4.622h0a.662.662,0,0,0,.652.774h9.467a.663.663,0,0,0,.65-.535l.277-1.414a1.169,1.169,0,0,1,1.149-.946h.025l2.481.052h.034a1.633,1.633,0,0,0,1-.341l.027-.021a1.633,1.633,0,0,0,.511-1.9,1.544,1.544,0,0,1,.279-1.605l.269-.3-.381-.461a.447.447,0,0,1,.084-.648l.43-.307-.447-1.084a.74.74,0,0,1,.394-.961l1.058-.448a.271.271,0,0,0,.11-.413l-2.411-3.182a1.951,1.951,0,0,1-.337-1.672l.068-.263c.228-.885-.2-1.938-1.271-3.132a9.823,9.823,0,0,0-7.075-3.224C1674.776,206.017,1674.682,206.015,1674.586,206.015Zm-7.011,21.992h0Z" fill="#fff"/>
      <path id="Caminho_24604" data-name="Caminho 24604" d="M2016.151,427.264a.257.257,0,0,1-.257-.257v-7.761a.257.257,0,0,1,.514,0v7.761A.257.257,0,0,1,2016.151,427.264Z" transform="translate(-341.957 -207.732)" fill="#fff"/>
      <path id="Caminho_24605" data-name="Caminho 24605" d="M1981.388,351.093a1.2,1.2,0,1,1,1.2-1.2A1.206,1.206,0,0,1,1981.388,351.093Zm0-1.9a.691.691,0,1,0,.691.691A.691.691,0,0,0,1981.388,349.2Z" transform="translate(-307.209 -139.323)" fill="#fff"/>
      <path id="Caminho_24606" data-name="Caminho 24606" d="M2289.388,844.339a1.2,1.2,0,1,1,1.2-1.2A1.206,1.206,0,0,1,2289.388,844.339Zm0-1.9a.691.691,0,1,0,.691.691A.692.692,0,0,0,2289.388,842.444Z" transform="translate(-606.905 -619.272)" fill="#fff"/>
      <path id="Caminho_24607" data-name="Caminho 24607" d="M2115.3,227.224a1.2,1.2,0,1,1,1.2-1.2A1.206,1.206,0,0,1,2115.3,227.224Zm0-1.9a.691.691,0,1,0,.691.691A.691.691,0,0,0,2115.3,225.329Z" transform="translate(-437.511 -18.793)" fill="#fff"/>
      <path id="Caminho_24608" data-name="Caminho 24608" d="M2115.3,829.831a1.2,1.2,0,1,1,1.2-1.2A1.206,1.206,0,0,1,2115.3,829.831Zm0-1.9a.691.691,0,1,0,.691.691A.691.691,0,0,0,2115.3,827.936Z" transform="translate(-437.511 -605.155)" fill="#fff"/>
      <path id="Caminho_24609" data-name="Caminho 24609" d="M1981.388,709.31a1.2,1.2,0,1,1,1.2-1.2A1.206,1.206,0,0,1,1981.388,709.31Zm0-1.9a.691.691,0,1,0,.691.691A.691.691,0,0,0,1981.388,707.415Z" transform="translate(-307.209 -487.883)" fill="#fff"/>
      <path id="Caminho_24610" data-name="Caminho 24610" d="M2064.946,309.98a.257.257,0,0,1-.238-.159l-1.925-4.693a.257.257,0,0,1-.019-.1v-5.084a.25.25,0,0,1,.02-.1l1.925-4.573a.257.257,0,1,1,.473.2L2063.278,300v4.982l1.906,4.646a.257.257,0,0,1-.238.354Z" transform="translate(-387.563 -87.199)" fill="#fff"/>
      <path id="Caminho_24611" data-name="Caminho 24611" d="M2119.226,296.869a.256.256,0,0,1-.149-.048l-3.61-2.587a.259.259,0,0,1-.085-.1l-1.263-2.828a.254.254,0,0,1-.022-.1v-4.723a.256.256,0,0,1,.02-.1l1.444-3.49a.256.256,0,0,1,.084-.108l2.456-1.827a.257.257,0,0,1,.307.412l-2.4,1.785-1.4,3.377v4.617l1.212,2.714,3.554,2.547a.257.257,0,0,1-.15.466Z" transform="translate(-437.511 -73.366)" fill="#fff"/>
      <path id="Caminho_24612" data-name="Caminho 24612" d="M1848.591,228.547a1.206,1.206,0,0,1-1.2-1.2c0-.039,0-.079.006-.118a.257.257,0,1,1,.511.05c0,.022,0,.045,0,.068a.691.691,0,1,0,1.135-.529.257.257,0,1,1,.331-.393,1.2,1.2,0,0,1-.775,2.126Z" transform="translate(-177.992 -20.296)" fill="#fff"/>
      <path id="Caminho_24613" data-name="Caminho 24613" d="M1848.591,823.136a1.2,1.2,0,1,1,1.2-1.2A1.206,1.206,0,0,1,1848.591,823.136Zm0-1.9a.691.691,0,1,0,.691.691A.692.692,0,0,0,1848.591,821.241Z" transform="translate(-177.992 -598.64)" fill="#fff"/>
      <path id="Caminho_24614" data-name="Caminho 24614" d="M1897.858,303.284a.257.257,0,0,1-.237-.354l1.906-4.646V293.3l-1.905-4.525a.257.257,0,0,1,.474-.2l1.925,4.573a.259.259,0,0,1,.02.1v5.084a.257.257,0,0,1-.019.1l-1.925,4.693A.257.257,0,0,1,1897.858,303.284Z" transform="translate(-226.853 -80.684)" fill="#fff"/>
      <path id="Caminho_24615" data-name="Caminho 24615" d="M1787.533,299.758a.257.257,0,0,1-.155-.462l2.053-1.555,1.214-2.718v-4.617l-1.4-3.377-2.018-1.492a.257.257,0,1,1,.305-.413l2.076,1.534a.257.257,0,0,1,.085.108l1.444,3.49a.256.256,0,0,1,.02.1v4.723a.256.256,0,0,1-.022.1l-1.263,2.828a.258.258,0,0,1-.079.1l-2.106,1.594A.255.255,0,0,1,1787.533,299.758Z" transform="translate(-119.355 -77.429)" fill="#fff"/>
    </g>
  </g>
</svg>
