<svg xmlns="http://www.w3.org/2000/svg" width="40" height="40" viewBox="0 0 40 40">
  <g id="Grupo_31407" data-name="Grupo 31407" transform="translate(-1246 -4017)">
    <g id="Componente_11" data-name="Componente 11" transform="translate(1246 4017)">
      <path id="Caminho_931" data-name="Caminho 931" d="M758.256,560.354a20,20,0,1,1,20-20A20.024,20.024,0,0,1,758.256,560.354Zm0-38.788a18.788,18.788,0,1,0,18.788,18.788A18.809,18.809,0,0,0,758.256,521.566Z" transform="translate(-738.256 -520.354)" fill="#ff5174"/>
    </g>
    <g id="Grupo_31381" data-name="Grupo 31381" transform="translate(2076.035 2854.895)">
      <path id="Caminho_24558" data-name="Caminho 24558" d="M-796.062,1187.968l-1.924-4.069v-9.255a2.843,2.843,0,0,0-3.066-2.539h-15.412a2.9,2.9,0,0,0-3.055,2.339h-.515a2.506,2.506,0,0,0-2.467,2.538v9.319l-.534,5.31a.273.273,0,0,0,.146.27.275.275,0,0,0,.125.03.274.274,0,0,0,.18-.067l2.652-2.313h16.686a2.5,2.5,0,0,0,2.453-2.267l4.419,1.085a.272.272,0,0,0,.065.008.273.273,0,0,0,.211-.1A.273.273,0,0,0-796.062,1187.968Zm-7.183,1.018h-16.788a.273.273,0,0,0-.179.067l-2.209,1.926.466-4.637a.27.27,0,0,0,0-.027v-9.333a1.96,1.96,0,0,1,1.921-1.993h.5v9.664a2.843,2.843,0,0,0,3.065,2.539h15.129A1.952,1.952,0,0,1-803.245,1188.985Zm2.259-2.331a.272.272,0,0,0-.065-.008h-15.412a2.306,2.306,0,0,1-2.519-1.993v-10.01a2.306,2.306,0,0,1,2.519-1.993h15.412a2.306,2.306,0,0,1,2.52,1.993v9.316a.272.272,0,0,0,.026.117l1.705,3.606Z" fill="#fff"/>
      <path id="Caminho_24559" data-name="Caminho 24559" d="M-738.978,1244.6H-750.6a.273.273,0,0,0-.273.273.273.273,0,0,0,.273.273h11.625a.273.273,0,0,0,.273-.273A.273.273,0,0,0-738.978,1244.6Z" transform="translate(-65.21 -65.515)" fill="#fff"/>
      <path id="Caminho_24560" data-name="Caminho 24560" d="M-738.978,1269.037H-750.6a.273.273,0,0,0-.273.273.273.273,0,0,0,.273.273h11.625a.273.273,0,0,0,.273-.273A.273.273,0,0,0-738.978,1269.037Z" transform="translate(-65.21 -87.597)" fill="#fff"/>
      <path id="Caminho_24561" data-name="Caminho 24561" d="M-743.914,1293.474H-750.6a.273.273,0,0,0-.273.273.273.273,0,0,0,.273.273h6.689a.273.273,0,0,0,.273-.273A.273.273,0,0,0-743.914,1293.474Z" transform="translate(-65.21 -109.681)" fill="#fff"/>
      <path id="Caminho_24562" data-name="Caminho 24562" d="M-750.6,1197.783h6.689a.273.273,0,0,0,.273-.273v-2.424a.273.273,0,0,0-.273-.273H-750.6a.273.273,0,0,0-.273.273v2.424A.273.273,0,0,0-750.6,1197.783Zm.273-2.424h6.143v1.878h-6.143Z" transform="translate(-65.21 -20.521)" fill="#fff"/>
    </g>
  </g>
</svg>
