<svg xmlns="http://www.w3.org/2000/svg" width="40" height="40" viewBox="0 0 40 40">
  <g id="Grupo_31401" data-name="Grupo 31401" transform="translate(-1246 -3846)">
    <g id="Componente_4" data-name="Componente 4" transform="translate(1246 3846)">
      <path id="Caminho_2090" data-name="Caminho 2090" d="M758.256,560.354a20,20,0,1,1,20-20A20.024,20.024,0,0,1,758.256,560.354Zm0-38.788a18.788,18.788,0,1,0,18.788,18.788A18.809,18.809,0,0,0,758.256,521.566Z" transform="translate(-738.256 -520.354)" fill="#ff5174"/>
    </g>
    <path id="Caminho_24595" data-name="Caminho 24595" d="M287.771,244.671l-3.024-7.53a2.373,2.373,0,1,0-3.595-2.752,2.188,2.188,0,0,0-.144.75.632.632,0,0,0,0,.065.615.615,0,0,0,0,.07,2.364,2.364,0,0,0,1.044,1.875l-1.085,2.839-3.005,7.864-.693,1.814a.55.55,0,0,0,.383.675.56.56,0,0,0,.675-.383l.13-.342a.425.425,0,0,0,.054-.031l5.051-3.5,2.233,1.528,2.734,1.871.149.371a.561.561,0,0,0,.675.383.55.55,0,0,0,.383-.675Zm-2.73-3.871.435,1.083-1.008-.69Zm-1.543-.271-1.211-.829-.032-.019.814-2.131.121.018a2.049,2.049,0,0,0,.549-.008l.883,2.2Zm-.117-6.6A1.277,1.277,0,1,1,282.1,235.2,1.283,1.283,0,0,1,283.381,233.926Zm-1.527,6.8.674.462-1.152.789Zm-1.118,5.984-1.589,1.1,1.065-2.786.373-.977,2.011,1.376Zm2.824-1.955-2.152-1.473,2.09-1.431,2.141,1.465Zm.967.662,1.854-1.283,1.414,3.52Zm8.249-13.677a10.152,10.152,0,0,0-3.763-4.853,9.989,9.989,0,0,0-5.985-1.737,10,10,0,0,0-4.75,18.6.549.549,0,0,0,.554-.948,8.909,8.909,0,0,1-3.661-11.131c.049-.12.185-.4.276-.582.119-.232.25-.458.388-.679a8,8,0,0,1,.845-1.134,8.753,8.753,0,0,1,2.239-1.839,8.886,8.886,0,0,1,10.884,1.551,8.864,8.864,0,0,1,1.643,2.394,9.232,9.232,0,0,1,.78,2.785,8.99,8.99,0,0,1-4.1,8.508c-.6.378-.046,1.328.554.948a10.176,10.176,0,0,0,4.18-5.3A10.008,10.008,0,0,0,292.776,231.745Zm-5.8,6.595a5.469,5.469,0,0,1-.495.434.562.562,0,0,0-.2.751.549.549,0,0,0,.751.2,5.9,5.9,0,0,0,2.059-2.7,5.96,5.96,0,0,0,.114-3.394,6.04,6.04,0,1,0-11.552,3.5,5.734,5.734,0,0,0,2.124,2.694.55.55,0,0,0,.751-.2.56.56,0,0,0-.2-.751,4.5,4.5,0,0,1-1.719-2.341,4.974,4.974,0,0,1,1.736-5.318,5.727,5.727,0,0,1,1.16-.664,5.161,5.161,0,0,1,1.412-.338,4.946,4.946,0,0,1,5.349,5.484A4.286,4.286,0,0,1,286.979,238.34Z" transform="translate(982.626 3627.849)" fill="#fff"/>
  </g>
</svg>
