<svg xmlns="http://www.w3.org/2000/svg" width="40" height="40" viewBox="0 0 40 40">
  <g id="Grupo_31400" data-name="Grupo 31400" transform="translate(-873 -3846)">
    <path id="Caminho_2090" data-name="Caminho 2090" d="M758.256,560.354a20,20,0,1,1,20-20A20.024,20.024,0,0,1,758.256,560.354Zm0-38.788a18.788,18.788,0,1,0,18.788,18.788A18.809,18.809,0,0,0,758.256,521.566Z" transform="translate(134.744 3325.646)" fill="#ff5174"/>
    <path id="Caminho_24596" data-name="Caminho 24596" d="M1504.81,845.654a11,11,0,1,0,3.222,7.778A10.928,10.928,0,0,0,1504.81,845.654Zm2.307,7.128h-1.535a.954.954,0,0,1-.953-.953v-5.054A10.065,10.065,0,0,1,1507.118,852.781Zm-12.812,8.249a.954.954,0,0,1,.953.953c0,.005,0,.011,0,.016v1.384a10.079,10.079,0,0,1-4.884-2.353Zm1.847,2.47v-1.517c0-.011,0-.021,0-.032a1.848,1.848,0,0,0-1.759-1.812l-.044,0h-4.785a.458.458,0,0,0-.08.008,10.069,10.069,0,0,1-2.5-5.612h3.141a.954.954,0,0,1,.953.953c0,.005,0,.01,0,.015v.8a1.848,1.848,0,0,0,1.846,1.846h2.566a1.524,1.524,0,1,0,0-.893h-2.566a.954.954,0,0,1-.953-.953v-.814c0-.01,0-.02,0-.03a1.848,1.848,0,0,0-1.759-1.814l-.044,0h-3.242c0-.069,0-.138,0-.208a10.1,10.1,0,0,1,.29-2.405h3.724a1.524,1.524,0,1,0,0-.893h-3.461a10.091,10.091,0,0,1,1.436-2.715.45.45,0,0,0,.061,0h6.657a.954.954,0,0,1,.953.953v3.6a1.524,1.524,0,1,0,.893,0v-3.6a1.848,1.848,0,0,0-1.846-1.846h-5.976a10.1,10.1,0,0,1,9.173-3.045l.008,5.7h0a1.848,1.848,0,0,0,1.846,1.845.954.954,0,0,1,.953.953v2.456a1.524,1.524,0,1,0,.893,0V851.98a1.848,1.848,0,0,0-1.846-1.846.954.954,0,0,1-.953-.953h0l-.007-5.491a10.1,10.1,0,0,1,4.022,2.194.45.45,0,0,0-.008.081v5.865a1.848,1.848,0,0,0,1.846,1.846h1.553a10.044,10.044,0,0,1-1.664,5.312h-5.54l-.044,0a1.848,1.848,0,0,0-1.759,1.813c0,.01,0,.021,0,.031v2.647a10.16,10.16,0,0,1-1.1.06C1496.736,863.539,1496.442,863.525,1496.152,863.5Zm.167-5.8a.631.631,0,1,1,.631.631A.632.632,0,0,1,1496.319,857.7Zm-4.554-7.119a.631.631,0,1,1,.631.631A.631.631,0,0,1,1491.765,850.58Zm5.267,2.221a.631.631,0,1,1-.631.631A.631.631,0,0,1,1497.032,852.8Zm5.05,2.461a.631.631,0,1,1-.631.631A.631.631,0,0,1,1502.082,855.262Zm-3.061,8.08v-2.494c0-.005,0-.01,0-.015a.954.954,0,0,1,.953-.953h4.834A10.116,10.116,0,0,1,1499.021,863.342Z" transform="translate(-604.032 3012.568)" fill="#fff"/>
  </g>
</svg>
