<svg xmlns="http://www.w3.org/2000/svg" width="40" height="40" viewBox="0 0 40 40">
  <g id="Grupo_31405" data-name="Grupo 31405" transform="translate(-1246 -3960)">
    <g id="Componente_6" data-name="Componente 6" transform="translate(1246 3960)">
      <path id="Caminho_931" data-name="Caminho 931" d="M758.256,560.354a20,20,0,1,1,20-20A20.024,20.024,0,0,1,758.256,560.354Zm0-38.788a18.788,18.788,0,1,0,18.788,18.788A18.809,18.809,0,0,0,758.256,521.566Z" transform="translate(-738.256 -520.354)" fill="#ff5174"/>
    </g>
    <g id="Grupo_31382" data-name="Grupo 31382" transform="translate(2038.341 2496.967)">
      <path id="Caminho_24565" data-name="Caminho 24565" d="M-725.31,1599.712a1.576,1.576,0,0,0,1.574-1.574v-4.372a1.576,1.576,0,0,0-1.574-1.574,1.576,1.576,0,0,0-1.574,1.574v4.372A1.576,1.576,0,0,0-725.31,1599.712Zm-.968-5.946a.969.969,0,0,1,.665-.918.962.962,0,0,1,.3-.049.963.963,0,0,1,.3.049.969.969,0,0,1,.664.918v4.372a.969.969,0,0,1-.664.918.963.963,0,0,1-.3.049.962.962,0,0,1-.3-.049.969.969,0,0,1-.665-.918Z" transform="translate(-52.204 -107.306)" fill="#fff"/>
      <path id="Caminho_24566" data-name="Caminho 24566" d="M-677.784,1599.712a1.576,1.576,0,0,0,1.574-1.574v-4.372a1.576,1.576,0,0,0-1.574-1.574,1.576,1.576,0,0,0-1.574,1.574v4.372A1.576,1.576,0,0,0-677.784,1599.712Zm-.968-5.946a.969.969,0,0,1,.664-.918.963.963,0,0,1,.3-.049.962.962,0,0,1,.3.049.969.969,0,0,1,.665.918v4.372a.969.969,0,0,1-.665.918.962.962,0,0,1-.3.049.963.963,0,0,1-.3-.049.969.969,0,0,1-.664-.918Z" transform="translate(-94.646 -107.306)" fill="#fff"/>
      <path id="Caminho_24567" data-name="Caminho 24567" d="M-630.258,1599.712a1.576,1.576,0,0,0,1.574-1.574v-4.372a1.576,1.576,0,0,0-1.574-1.574,1.576,1.576,0,0,0-1.574,1.574v4.372A1.576,1.576,0,0,0-630.258,1599.712Zm-.968-5.946a.969.969,0,0,1,.665-.918.962.962,0,0,1,.3-.049.963.963,0,0,1,.3.049.969.969,0,0,1,.665.918v4.372a.969.969,0,0,1-.665.918.963.963,0,0,1-.3.049.962.962,0,0,1-.3-.049.969.969,0,0,1-.665-.918Z" transform="translate(-137.089 -107.306)" fill="#fff"/>
      <path id="Caminho_24568" data-name="Caminho 24568" d="M-760.226,1480.717h-1.733v-4.374a.711.711,0,0,0-.71-.71h-2.795l1.013-1.013a1.109,1.109,0,0,0,.327-.79,1.109,1.109,0,0,0-.327-.789,1.108,1.108,0,0,0-.79-.327,1.109,1.109,0,0,0-.789.327l-2.592,2.592h-.963v-2.211a.709.709,0,0,0-.708-.708h-4.274a.709.709,0,0,0-.708.708v2.7a5.343,5.343,0,0,0-1.93-.48,3.948,3.948,0,0,0-.957-2.653,4.194,4.194,0,0,0-2.969-.951l-.26.02-.019.26a4.194,4.194,0,0,0,.951,2.969,3,3,0,0,0,1.087.676,5.4,5.4,0,0,0-3.519,4.753h-1.742a.708.708,0,0,0-.707.707v1.735a.708.708,0,0,0,.707.707h.548l.93,7.751a2.745,2.745,0,0,0,2.724,2.417h16.005a2.745,2.745,0,0,0,2.724-2.417l.93-7.751h.548a.707.707,0,0,0,.707-.707v-1.735A.708.708,0,0,0-760.226,1480.717Zm-2.443-4.477a.1.1,0,0,1,.1.1v1.832H-764.8a.3.3,0,0,0-.3.3.3.3,0,0,0,.3.3h2.239v1.935h-7.982l.356-.356.3-.3.3-.3,3.514-3.515Zm-5.7,0,.3-.3.3-.3,2.163-2.163a.506.506,0,0,1,.36-.149.506.506,0,0,1,.361.15.506.506,0,0,1,.149.361.507.507,0,0,1-.15.361l-1.442,1.442-.3.3-.3.3-2.657,2.657-.3.3-.3.3-1.214,1.214-.3.3-.3.3-.058.057a.506.506,0,0,1-.361.149.507.507,0,0,1-.361-.149.514.514,0,0,1-.047-.057.5.5,0,0,1-.1-.3h0a.5.5,0,0,1,.1-.3.5.5,0,0,1,.047-.057l.039-.04.018-.018.257-.257.046-.046.219-.219.084-.084,1.936-1.935.3-.3.3-.3Zm-1.214,0h.356l-.356.356-.3.3-.3.3-1.936,1.935v-2.795a.1.1,0,0,1,.1-.1h2.438Zm-5.084-2.818a.1.1,0,0,1,.1-.1h4.274a.1.1,0,0,1,.1.1v2.211h-1.832a.711.711,0,0,0-.71.71v2.2a5.424,5.424,0,0,0-1.935-2.093Zm-5.363,1.437a3.367,3.367,0,0,1-.778-2.218,3.368,3.368,0,0,1,2.218.778,3.367,3.367,0,0,1,.778,2.218A3.367,3.367,0,0,1-780.031,1474.86Zm2.285,1.386h.023c.109,0,.185,0,.217-.006a4.75,4.75,0,0,1,2.231.558q.155.083.3.176c.1.065.2.135.3.208a4.791,4.791,0,0,1,1.8,2.7l-.348.348a1.109,1.109,0,0,0-.285.486h-6.238a4.749,4.749,0,0,1,.688-2.182.3.3,0,0,0-.1-.417.3.3,0,0,0-.417.1,5.355,5.355,0,0,0-.779,2.5h-1.935A4.787,4.787,0,0,1-777.747,1476.246Zm15.441,15.3a2.138,2.138,0,0,1-2.122,1.882h-16.005a2.138,2.138,0,0,1-2.122-1.882l-.921-7.679h22.091Zm2.18-8.385a.1.1,0,0,1-.1.1h-24.408a.1.1,0,0,1-.1-.1v-1.735a.1.1,0,0,1,.1-.1h11.13a1.11,1.11,0,0,0,.285.486,1.109,1.109,0,0,0,.79.327,1.109,1.109,0,0,0,.789-.327l.486-.486h10.928a.1.1,0,0,1,.1.1Z" fill="#fff"/>
    </g>
  </g>
</svg>
