<svg xmlns="http://www.w3.org/2000/svg" width="40" height="40" viewBox="0 0 40 40">
  <g id="Grupo_31399" data-name="Grupo 31399" transform="translate(-1246 -3789)">
    <g id="Grupo_31285" data-name="Grupo 31285" transform="translate(1066 -222)">
      <path id="Caminho_2102" data-name="Caminho 2102" d="M758.256,560.354a20,20,0,1,1,20-20A20.024,20.024,0,0,1,758.256,560.354Zm0-38.788a18.788,18.788,0,1,0,18.788,18.788A18.809,18.809,0,0,0,758.256,521.566Z" transform="translate(-558.256 3490.646)" fill="#ff5174"/>
    </g>
    <g id="Grupo_31383" data-name="Grupo 31383" transform="translate(1175.089 3678.322)">
      <path id="Caminho_24577" data-name="Caminho 24577" d="M154.773,126.129a6.01,6.01,0,0,0-3.932-5.043,6.637,6.637,0,0,0-3.621-.275A7.4,7.4,0,0,0,144,122.36a7.4,7.4,0,0,0-3.218-1.549,6.637,6.637,0,0,0-3.621.275,6.01,6.01,0,0,0-3.932,5.043,7.8,7.8,0,0,0,.21,2.777h1.116a6.87,6.87,0,0,1-.253-2.654,4.949,4.949,0,0,1,3.236-4.154,5.408,5.408,0,0,1,1.891-.338,6.249,6.249,0,0,1,4.206,1.711.54.54,0,0,0,.731,0,5.96,5.96,0,0,1,6.1-1.374,4.949,4.949,0,0,1,3.236,4.154,9.037,9.037,0,0,1-1.812,5.9A28.443,28.443,0,0,1,144,139.49a29.242,29.242,0,0,1-7.645-6.986h-1.3c.053.083.107.166.163.249a29.928,29.928,0,0,0,8.487,7.836.539.539,0,0,0,.6,0,29.928,29.928,0,0,0,8.487-7.836A10.08,10.08,0,0,0,154.773,126.129Z" transform="translate(-51.248)" fill="#fff"/>
      <path id="Caminho_24578" data-name="Caminho 24578" d="M87.779,211.142l1.231-3.164,1.681,6.759a.54.54,0,0,0,.462.406.545.545,0,0,0,.062,0,.54.54,0,0,0,.48-.294l1.724-3.367h3.357a.54.54,0,1,0,0-1.079H93.089a.54.54,0,0,0-.48.294l-1.218,2.379-1.743-7.011A.54.54,0,0,0,88.621,206l-1.714,4.4H79.451a.54.54,0,0,0,0,1.079h7.826A.54.54,0,0,0,87.779,211.142Z" transform="translate(0 -80.241)" fill="#fff"/>
    </g>
  </g>
</svg>
