<svg xmlns="http://www.w3.org/2000/svg" width="40" height="40" viewBox="0 0 40 40">
  <g id="Grupo_31404" data-name="Grupo 31404" transform="translate(-873 -3960)">
    <path id="Caminho_931" data-name="Caminho 931" d="M758.256,560.354a20,20,0,1,1,20-20A20.024,20.024,0,0,1,758.256,560.354Zm0-38.788a18.788,18.788,0,1,0,18.788,18.788A18.809,18.809,0,0,0,758.256,521.566Z" transform="translate(134.744 3439.646)" fill="#ff5174"/>
    <g id="Grupo_31385" data-name="Grupo 31385" transform="translate(-1507.553 3211.981)">
      <path id="Caminho_24573" data-name="Caminho 24573" d="M2714.473,1517.106a1.808,1.808,0,1,0,1.808,1.808A1.81,1.81,0,0,0,2714.473,1517.106Zm0,2.429a.621.621,0,1,1,.621-.621A.622.622,0,0,1,2714.473,1519.535Z" transform="translate(-317.116 -742.703)" fill="#fff"/>
      <path id="Caminho_24574" data-name="Caminho 24574" d="M3229.962,1517.106a1.808,1.808,0,1,0,1.809,1.808A1.81,1.81,0,0,0,3229.962,1517.106Zm0,2.429a.621.621,0,1,1,.621-.621A.622.622,0,0,1,3229.962,1519.535Z" transform="translate(-821.479 -742.703)" fill="#fff"/>
      <path id="Caminho_24575" data-name="Caminho 24575" d="M2396.156,771.075l.048,0,13.467-1.092.034,0h0l.042-.005h.009l.042-.008h0l.042-.012h0l.042-.016h0a.6.6,0,0,0,.08-.041l0,0a.6.6,0,0,0,.069-.05l0,0,.03-.028,0,0,.025-.026.005-.005.024-.031.005-.008.023-.033h0l.021-.036,0-.006c.007-.013.013-.026.019-.039v0a.6.6,0,0,0,.03-.088h0l.974-3.894a.114.114,0,0,1,0-.012l.906-3.624a.593.593,0,0,0-.576-.737h-17.791l-.8-2.443a.594.594,0,0,0-.493-.405l-3.239-.393a.594.594,0,0,0-.143,1.178l2.864.347,2.224,6.812,0,.006.472,1.447h0l.731,2.238a1.975,1.975,0,0,0,.787,3.786h14.123a.594.594,0,0,0,0-1.187h-14.123a.788.788,0,0,1,0-1.576Zm-.623-4.346,2.7-.116.962,3.026-2.639.214Zm5.316-4.277.9,2.821-2.661.115-.934-2.936Zm3.943,0,.844,2.653-2.661.115-.88-2.768Zm4.393,6.378-1.09.088-.857-2.694,2.626-.113Zm-2.3.186-2.63.213-.9-2.838,2.661-.115Zm-4.761-2.572.917,2.883-2.63.213-.948-2.981Zm8.045-1.536-3.3.142-.827-2.6h4.741Zm-13.259-2.458.951,2.989-2.707.117-1.014-3.106Z" transform="translate(0 0)" fill="#fff"/>
    </g>
  </g>
</svg>
