<svg xmlns="http://www.w3.org/2000/svg" width="40" height="40" viewBox="0 0 40 40">
  <g id="Grupo_31397" data-name="Grupo 31397" transform="translate(-1246 -3732)">
    <g id="Componente_5" data-name="Componente 5" transform="translate(1246 3732)">
      <path id="Caminho_930" data-name="Caminho 930" d="M758.256,560.354a20,20,0,1,1,20-20A20.024,20.024,0,0,1,758.256,560.354Zm0-38.788a18.788,18.788,0,1,0,18.788,18.788A18.809,18.809,0,0,0,758.256,521.566Z" transform="translate(-738.256 -520.354)" fill="#ff5174"/>
    </g>
    <g id="Grupo_31379" data-name="Grupo 31379" transform="translate(2344.792 2580.151)">
      <path id="Caminho_24551" data-name="Caminho 24551" d="M-978.779,1167.6h6.406a.3.3,0,0,0,.235-.112l1.557-1.916a1.384,1.384,0,0,0,1.379-.35,1.391,1.391,0,0,0,.41-.99,1.391,1.391,0,0,0-.41-.99l-1.988-1.989a1.41,1.41,0,0,0-1.98,0,1.406,1.406,0,0,0-.347,1.38l-5.453,4.426a.3.3,0,0,0-.095.337A.3.3,0,0,0-978.779,1167.6Zm5.815-4.632a.3.3,0,0,0,.081-.369.8.8,0,0,1,.143-.915.8.8,0,0,1,1.123,0l1.987,1.988a.788.788,0,0,1,.233.561.789.789,0,0,1-.233.561.8.8,0,0,1-.561.232.806.806,0,0,1-.352-.089.3.3,0,0,0-.368.081l-1.606,1.976h-5.407Z" transform="translate(-98.867)" fill="#fff"/>
      <path id="Caminho_24552" data-name="Caminho 24552" d="M-1022.633,1245.037a4.409,4.409,0,0,0-4.4,4.4,4.409,4.409,0,0,0,4.4,4.4,4.409,4.409,0,0,0,4.4-4.4A4.409,4.409,0,0,0-1022.633,1245.037Zm0,8.2a3.8,3.8,0,0,1-3.8-3.8,3.8,3.8,0,0,1,3.8-3.8,3.8,3.8,0,0,1,3.8,3.8A3.8,3.8,0,0,1-1022.633,1253.239Z" transform="translate(-56.042 -75.182)" fill="#fff"/>
      <path id="Caminho_24553" data-name="Caminho 24553" d="M-1069.045,1225.274h-19.26a1.489,1.489,0,0,0-1.487,1.487v1.842a11.145,11.145,0,0,0,5.544,9.616.675.675,0,0,0,.339.091h10.468a.675.675,0,0,0,.339-.091,11.146,11.146,0,0,0,5.545-9.616v-1.842A1.489,1.489,0,0,0-1069.045,1225.274Zm.881,3.329a10.538,10.538,0,0,1-5.242,9.092.07.07,0,0,1-.035.009h-10.468a.07.07,0,0,1-.035-.009,10.537,10.537,0,0,1-5.242-9.091v-1.842a.882.882,0,0,1,.881-.881h19.26a.882.882,0,0,1,.881.881Z" transform="translate(0 -57.533)" fill="#fff"/>
      <path id="Caminho_24554" data-name="Caminho 24554" d="M-1029.858,1348.426H-1040.7a.5.5,0,0,0-.5.5v.761a.677.677,0,0,0,.676.676h10.486a.677.677,0,0,0,.676-.676v-.761A.5.5,0,0,0-1029.858,1348.426Zm-.11,1.258a.071.071,0,0,1-.07.069h-10.486a.071.071,0,0,1-.07-.069v-.651h10.625Z" transform="translate(-43.394 -167.511)" fill="#fff"/>
      <path id="Caminho_24555" data-name="Caminho 24555" d="M-1005.823,1263.109h-1.11V1262a.518.518,0,0,0-.516-.52h-1a.52.52,0,0,0-.519.52v1.11h-1.11a.516.516,0,0,0-.516.516v1a.518.518,0,0,0,.516.519h1.11v1.11a.518.518,0,0,0,.519.516h1a.516.516,0,0,0,.516-.516v-1.11h1.11a.52.52,0,0,0,.519-.519v-1A.518.518,0,0,0-1005.823,1263.109Zm-.087,1.428h-1.326a.3.3,0,0,0-.3.3v1.323h-.822v-1.323a.3.3,0,0,0-.3-.3h-1.323v-.822h1.323a.3.3,0,0,0,.3-.3v-1.326h.822v1.326a.3.3,0,0,0,.3.3h1.326Z" transform="translate(-70.726 -89.866)" fill="#fff"/>
    </g>
  </g>
</svg>
