<svg id="Grupo_286" data-name="Grupo 286" xmlns="http://www.w3.org/2000/svg" width="36.314" height="36.314" viewBox="0 0 36.314 36.314">
  <g id="Grupo_285" data-name="Grupo 285">
    <path id="Caminho_587" data-name="Caminho 587" d="M1487.43,66.626a18.157,18.157,0,1,1,18.157-18.157A18.177,18.177,0,0,1,1487.43,66.626Zm0-34.388a16.231,16.231,0,1,0,16.232,16.231A16.25,16.25,0,0,0,1487.43,32.238Z" transform="translate(-1469.273 -30.312)" fill="#ff5174"/>
  </g>
  <path id="Caminho_588" data-name="Caminho 588" d="M1518.309,77.319h-9.415c-5.154,0-5.154,1.468-5.154,5.078v3.528c0,3.434.73,5.078,5.154,5.078h9.415c4,0,5.153-.962,5.153-5.078V82.4C1523.462,78.6,1523.268,77.319,1518.309,77.319Zm-6.722,9.524V81.3l5.316,2.76Z" transform="translate(-1495.444 -66.005)" fill="#ff5174"/>
</svg>
