<svg id="Grupo_31242" data-name="Grupo 31242" xmlns="http://www.w3.org/2000/svg" width="36.314" height="36.314" viewBox="0 0 36.314 36.314">
  <g id="Grupo_282" data-name="Grupo 282" transform="translate(11.789 7.252)">
    <path id="Caminho_585" data-name="Caminho 585" d="M803.728,82.251q0-1.15,0-2.3,0-3.724,0-7.448c0-.19,0-.19-.187-.19-1,0-2,0-3,0-.131,0-.174-.027-.173-.168.006-1.186,0-2.371,0-3.557,0-.177,0-.177.174-.178,1.007,0,2.015,0,3.022,0,.123,0,.159-.034.159-.157,0-.985-.009-1.97,0-2.955a5.429,5.429,0,0,1,.51-2.291,4.284,4.284,0,0,1,3.157-2.436,5.643,5.643,0,0,1,1.324-.134c.7.019,1.4.033,2.1.06.261.01.522.055.784.069.115.006.138.05.138.155q0,1.611,0,3.223c0,.122-.041.151-.154.15-.611,0-1.221-.007-1.832,0a6.012,6.012,0,0,0-.732.054,1.3,1.3,0,0,0-1.189,1.182,5.631,5.631,0,0,0-.053.718c-.007.74,0,1.48,0,2.22,0,.112.033.143.143.143,1.172,0,2.345,0,3.517,0,.177,0,.183,0,.16.177-.083.635-.173,1.269-.255,1.9-.069.53-.131,1.06-.2,1.59,0,.031-.01.062-.012.093-.005.1-.055.139-.162.138-.535-.005-1.07,0-1.6,0h-1.4c-.184,0-.184,0-.184.178v6.94c0,.881,0,2.563,0,2.819Z" transform="translate(-800.37 -60.441)" fill="#ff5174"/>
  </g>
  <g id="Grupo_283" data-name="Grupo 283" transform="translate(0)">
    <path id="Caminho_586" data-name="Caminho 586" d="M769.546,66.626A18.157,18.157,0,1,1,787.7,48.469,18.177,18.177,0,0,1,769.546,66.626Zm0-34.388a16.231,16.231,0,1,0,16.231,16.231A16.25,16.25,0,0,0,769.546,32.238Z" transform="translate(-751.389 -30.312)" fill="#ff5174"/>
  </g>
</svg>
