<svg id="Grupo_31369" data-name="Grupo 31369" xmlns="http://www.w3.org/2000/svg" width="36.314" height="36.314" viewBox="0 0 36.314 36.314">
  <g id="Grupo_287" data-name="Grupo 287">
    <path id="Caminho_589" data-name="Caminho 589" d="M1307.959,66.626a18.157,18.157,0,1,1,18.156-18.157A18.178,18.178,0,0,1,1307.959,66.626Zm0-34.388a16.231,16.231,0,1,0,16.231,16.231A16.25,16.25,0,0,0,1307.959,32.238Z" transform="translate(-1289.802 -30.312)" fill="#ff5174"/>
  </g>
  <g id="Grupo_288" data-name="Grupo 288" transform="translate(9.591 8.242)">
    <path id="Caminho_590" data-name="Caminho 590" d="M1329.954,70.687h3.834V83.02h-3.834Zm1.917-6.131a2.222,2.222,0,1,1-2.223,2.222,2.223,2.223,0,0,1,2.223-2.222" transform="translate(-1329.649 -64.556)" fill="#ff5174"/>
    <path id="Caminho_591" data-name="Caminho 591" d="M1356.834,89.06h3.677v1.685h.051a4.028,4.028,0,0,1,3.627-1.992c3.881,0,4.6,2.555,4.6,5.875v6.765h-3.83v-6c0-1.43-.027-3.27-1.992-3.27-1.994,0-2.3,1.558-2.3,3.167v6.1h-3.83Z" transform="translate(-1350.291 -82.929)" fill="#ff5174"/>
  </g>
</svg>
