<svg xmlns="http://www.w3.org/2000/svg" width="400.284" height="34" viewBox="0 0 400.284 34">
  <g id="Grupo_31365" data-name="Grupo 31365" transform="translate(400.284 34) rotate(180)">
    <path id="Caminho_24546" data-name="Caminho 24546" d="M-1857.1,1046.338c-12.345,0-18.684-7.351-23.778-13.258-5.113-5.929-8.335-9.283-15.1-9.283s-9.985,3.354-15.1,9.282c-5.094,5.907-11.433,13.258-23.776,13.258s-18.684-7.351-23.778-13.258c-5.113-5.929-8.334-9.283-15.1-9.283s-9.987,3.354-15.1,9.283c-5.094,5.906-11.434,13.258-23.778,13.258s-18.685-7.351-23.78-13.258c-5.114-5.929-8.336-9.283-15.1-9.283s-9.989,3.354-15.1,9.283c-5.095,5.906-11.435,13.258-23.781,13.258s-18.686-7.351-23.781-13.258c-5.114-5.929-8.336-9.283-15.1-9.283s-9.99,3.354-15.1,9.283c-5.094,5.907-11.435,13.258-23.781,13.258s-18.688-7.351-23.784-13.257c-5.114-5.929-8.337-9.283-15.106-9.283s-9.992,3.354-15.106,9.283c-5.1,5.907-11.437,13.257-23.784,13.257a5.73,5.73,0,0,1-5.729-5.73,5.73,5.73,0,0,1,5.729-5.73c6.769,0,9.992-3.354,15.107-9.283,5.1-5.906,11.437-13.257,23.784-13.257s18.688,7.351,23.784,13.257c5.114,5.929,8.338,9.283,15.107,9.283s9.99-3.354,15.1-9.283c5.095-5.907,11.436-13.258,23.782-13.258s18.685,7.351,23.78,13.258c5.114,5.928,8.337,9.283,15.1,9.283s9.99-3.354,15.1-9.283c5.095-5.907,11.435-13.258,23.78-13.258s18.686,7.351,23.78,13.258c5.114,5.928,8.336,9.283,15.1,9.283s9.987-3.354,15.1-9.283c5.094-5.907,11.434-13.258,23.779-13.258s18.684,7.351,23.778,13.258c5.113,5.929,8.334,9.282,15.1,9.282s9.986-3.354,15.1-9.282c5.093-5.907,11.432-13.258,23.776-13.258s18.685,7.351,23.779,13.258c5.113,5.929,8.335,9.283,15.1,9.283a5.73,5.73,0,0,1,5.729,5.73A5.73,5.73,0,0,1-1857.1,1046.338Z" transform="translate(2251.652 -1012.338)" fill="#01b2e4"/>
  </g>
</svg>
