<?xml version="1.0" encoding="utf-8"?>
<!-- Generator: Adobe Illustrator 26.2.1, SVG Export Plug-In . SVG Version: 6.00 Build 0)  -->
<svg version="1.1" id="Grupo_31202" xmlns="http://www.w3.org/2000/svg" xmlns:xlink="http://www.w3.org/1999/xlink" x="0px"
	 y="0px" viewBox="0 0 69 69" style="enable-background:new 0 0 69 69;" xml:space="preserve">
<style type="text/css">
	.st0{fill:#FFFFFF;}
</style>
<g id="Grupo_31201">
	<path id="Caminho_24664" class="st0" d="M34.5,0C15.5,0,0.1,15.4,0.1,34.5c0,6,1.6,12,4.6,17.2L0,69l18.1-4.3
		c5.1,2.8,10.7,4.2,16.5,4.2h0c19,0,34.5-15.4,34.5-34.5C69,15.4,53.6,0,34.5,0 M34.5,6.9c15.2,0,27.6,12.3,27.6,27.6
		C62.1,49.7,49.7,62,34.5,62c-4.6,0-9.1-1.2-13.2-3.3L19,57.4L16.5,58l-6.8,1.6l1.7-6.2l0.7-2.8l-1.4-2.5C3.1,35,7.6,18.2,20.8,10.6
		C25,8.2,29.7,6.9,34.5,6.9 M22.3,18.5c-0.9,0-1.7,0.4-2.3,1.1c-2,1.9-3.1,4.5-3,7.2c0,4.2,3.1,8.3,3.5,8.9s6,9.5,14.7,13
		c7.3,2.9,8.8,2.3,10.3,2.2s5.1-2.1,5.8-4.1c0.6-1.3,0.7-2.7,0.5-4.1c-0.2-0.4-0.8-0.6-1.7-1s-5.1-2.5-5.9-2.8s-1.4-0.4-1.9,0.4
		s-2.2,2.8-2.7,3.4s-1,0.7-1.9,0.2c-2.5-1-4.9-2.5-6.9-4.3c-1.9-1.7-3.5-3.7-4.8-6c-0.5-0.9,0-1.3,0.4-1.8c0.4-0.4,0.9-1,1.3-1.5
		c0.4-0.4,0.6-0.9,0.9-1.4c0.2-0.5,0.2-1.1-0.1-1.5c-0.2-0.4-1.9-4.7-2.7-6.4c-0.6-1.4-1.3-1.5-1.9-1.5
		C23.5,18.5,22.9,18.5,22.3,18.5"/>
</g>
</svg>
