<svg xmlns="http://www.w3.org/2000/svg" width="61.54" height="37.871" viewBox="0 0 61.54 37.871">
  <g id="Grupo_30996" data-name="Grupo 30996" transform="translate(0)">
    <path id="Subtração_2" data-name="Subtração 2" d="M23.779,26.779H13.972V13.972H0V3A3,3,0,0,1,3,0H23.779a3,3,0,0,1,3,3V23.778A3,3,0,0,1,23.779,26.779Z" transform="translate(42.604 0) rotate(45)" fill="#fff"/>
    <path id="Retângulo_461" data-name="Retângulo 461" d="M3,0H24.547a0,0,0,0,1,0,0V21.547a3,3,0,0,1-3,3H3a3,3,0,0,1-3-3V3A3,3,0,0,1,3,0Z" transform="translate(17.357 1.991) rotate(45)" fill="#fff"/>
  </g>
</svg>
