<svg xmlns="http://www.w3.org/2000/svg" width="151" height="151" viewBox="0 0 151 151">
  <g id="Grupo_31254" data-name="Grupo 31254" transform="translate(-1452 -1896)">
    <g id="Elipse_191" data-name="Elipse 191" transform="translate(1452 1896)" fill="none" stroke="#e36489" stroke-width="6">
      <circle cx="75.5" cy="75.5" r="75.5" stroke="none"/>
      <circle cx="75.5" cy="75.5" r="72.5" fill="none"/>
    </g>
    <path id="Caminho_24511" data-name="Caminho 24511" d="M38,9.132c-3.2,2.077-8.291,3.255-15,3.255S11.2,11.21,8,9.132v5.13c0,3.885,7.534,5.625,15,5.625s15-1.74,15-5.625Z" transform="translate(1505 1952.113)" fill="#003278"/>
    <path id="Caminho_24512" data-name="Caminho 24512" d="M8,12.132v5.13c0,3.885,7.534,5.625,15,5.625s15-1.74,15-5.625v-5.13c-3.2,2.077-8.291,3.255-15,3.255S11.2,14.21,8,12.132" transform="translate(1505 1960.363)" fill="#003278"/>
    <path id="Caminho_24513" data-name="Caminho 24513" d="M23,17.25c7.466,0,15-1.74,15-5.625C38,6.158,24.534,6,23,6S8,6.158,8,11.625c0,3.885,7.534,5.625,15,5.625" transform="translate(1505 1943.5)" fill="#003278"/>
    <path id="Caminho_24514" data-name="Caminho 24514" d="M38,15.132c-3.2,2.078-8.291,3.255-15,3.255S11.2,17.21,8,15.132v5.13c0,5.468,13.466,5.625,15,5.625s15-.157,15-5.625Z" transform="translate(1505 1968.613)" fill="#003278"/>
    <path id="Caminho_24515" data-name="Caminho 24515" d="M19.817,10.924a1.864,1.864,0,0,0-.067.326V35.625a1.875,1.875,0,1,0,3.75,0V11.25a1.86,1.86,0,0,0-.064-.326,5.627,5.627,0,1,0-3.619,0" transform="translate(1526.997 1927)" fill="#003278"/>
    <path id="Caminho_24516" data-name="Caminho 24516" d="M37.625,20.5a5.615,5.615,0,0,0-5.28,3.75H28.25V14.875A1.876,1.876,0,0,0,26.375,13h-7.5a1.875,1.875,0,0,0,0,3.75H24.5v9.375A1.876,1.876,0,0,0,26.375,28h5.97a5.615,5.615,0,1,0,5.28-7.5" transform="translate(1529.75 1962.75)" fill="#003278"/>
    <path id="Caminho_24517" data-name="Caminho 24517" d="M23.5,37.845V16.875a1.875,1.875,0,1,0-3.75,0v20.97a5.625,5.625,0,1,0,3.75,0" transform="translate(1527 1968.25)" fill="#003278"/>
    <path id="Caminho_24518" data-name="Caminho 24518" d="M8.817,10.924a1.865,1.865,0,0,0-.068.326V35.625a1.875,1.875,0,1,0,3.75,0V11.25a1.86,1.86,0,0,0-.064-.326,5.627,5.627,0,1,0-3.619,0" transform="translate(1496.747 1927)" fill="#003278"/>
    <path id="Caminho_24519" data-name="Caminho 24519" d="M5.625,17.25a5.615,5.615,0,0,0,5.28-3.75H15V26.625A1.876,1.876,0,0,0,16.875,28.5h7.5a1.875,1.875,0,1,0,0-3.75H18.75V11.625A1.876,1.876,0,0,0,16.875,9.75h-5.97a5.615,5.615,0,1,0-5.28,7.5" transform="translate(1483 1943.5)" fill="#003278"/>
    <path id="Caminho_24520" data-name="Caminho 24520" d="M12.5,37.845V16.875a1.875,1.875,0,1,0-3.75,0v20.97a5.625,5.625,0,1,0,3.75,0" transform="translate(1496.75 1968.25)" fill="#003278"/>
    <path id="Caminho_24521" data-name="Caminho 24521" d="M24.5,24.75H18.875a1.875,1.875,0,0,0,0,3.75h7.5a1.876,1.876,0,0,0,1.875-1.875V13.5h4.095a5.625,5.625,0,1,0,0-3.75h-5.97A1.876,1.876,0,0,0,24.5,11.625Z" transform="translate(1529.75 1943.5)" fill="#003278"/>
    <path id="Caminho_24522" data-name="Caminho 24522" d="M18.75,16.75h5.625a1.875,1.875,0,0,0,0-3.75h-7.5A1.876,1.876,0,0,0,15,14.875V24.25h-4.1a5.625,5.625,0,1,0,0,3.75h5.97a1.876,1.876,0,0,0,1.875-1.875Z" transform="translate(1483 1962.75)" fill="#003278"/>
  </g>
</svg>
