<svg xmlns="http://www.w3.org/2000/svg" width="151" height="151" viewBox="0 0 151 151">
  <g id="Grupo_31252" data-name="Grupo 31252" transform="translate(-696 -1896)">
    <g id="Elipse_189" data-name="Elipse 189" transform="translate(696 1896)" fill="none" stroke="#e36489" stroke-width="6">
      <circle cx="75.5" cy="75.5" r="75.5" stroke="none"/>
      <circle cx="75.5" cy="75.5" r="72.5" fill="none"/>
    </g>
    <path id="Caminho_24503" data-name="Caminho 24503" d="M58.837,80a2.076,2.076,0,0,1-1.469-.608l-3.261-3.261-3.261,3.261a2.077,2.077,0,0,1-2.937,0l-3.262-3.261-3.261,3.261a2.077,2.077,0,0,1-2.937,0l-3.262-3.261-3.261,3.261a2.077,2.077,0,0,1-2.937,0l-3.261-3.261-3.262,3.261a2.077,2.077,0,0,1-2.937,0l-3.262-3.261-3.261,3.261a2.077,2.077,0,0,1-2.937,0L6.807,76.131,3.546,79.393A2.077,2.077,0,0,1,0,77.924V2.078A2.077,2.077,0,0,1,2.077,0h56.76a2.077,2.077,0,0,1,2.077,2.077V77.924A2.077,2.077,0,0,1,58.837,80M16.267,71.117a2.071,2.071,0,0,1,1.469.608L21,74.987l3.262-3.262a2.078,2.078,0,0,1,2.938,0l3.261,3.261,3.261-3.261a2.078,2.078,0,0,1,2.938,0l3.261,3.261,3.261-3.261a2.078,2.078,0,0,1,2.938,0l3.261,3.261,3.261-3.261a2.077,2.077,0,0,1,2.938,0l1.184,1.184V4.155H4.154V72.91l1.184-1.184a2.077,2.077,0,0,1,2.938,0l3.261,3.261L14.8,71.725a2.071,2.071,0,0,1,1.469-.608" transform="translate(741 1931.999)" fill="#003278"/>
    <path id="Caminho_24504" data-name="Caminho 24504" d="M95.848,65.668H60.239a2.077,2.077,0,0,1,0-4.154H95.848a2.077,2.077,0,1,1,0,4.154" transform="translate(693.343 1881.596)" fill="#003278"/>
    <path id="Caminho_24505" data-name="Caminho 24505" d="M78.114,117.28H60.239a2.077,2.077,0,1,1,0-4.154H78.114a2.077,2.077,0,0,1,0,4.154" transform="translate(693.343 1839.306)" fill="#003278"/>
    <path id="Caminho_24506" data-name="Caminho 24506" d="M95.848,165.173H60.239a2.077,2.077,0,0,1,0-4.154H95.848a2.077,2.077,0,0,1,0,4.154" transform="translate(693.343 1800.063)" fill="#003278"/>
    <path id="Caminho_24507" data-name="Caminho 24507" d="M78.114,216.786H60.239a2.077,2.077,0,0,1,0-4.154H78.114a2.077,2.077,0,0,1,0,4.154" transform="translate(693.343 1757.772)" fill="#003278"/>
    <path id="Caminho_24508" data-name="Caminho 24508" d="M201.329,236.864a1.364,1.364,0,0,1,1.373,1.373v.37a11.087,11.087,0,0,1,3.828,1.268,1.778,1.778,0,0,1-.845,3.352,1.925,1.925,0,0,1-.924-.238,10.083,10.083,0,0,0-2.191-.9V246.1c4.013,1.082,5.729,2.719,5.729,5.676s-2.271,4.857-5.6,5.227v1.4a1.373,1.373,0,0,1-2.746,0v-1.426a13.2,13.2,0,0,1-5.2-1.848,1.814,1.814,0,0,1,.924-3.379,1.919,1.919,0,0,1,1.03.344,10.084,10.084,0,0,0,3.379,1.478v-4.2c-3.8-1.03-5.676-2.482-5.676-5.623,0-2.9,2.217-4.858,5.544-5.2v-.317a1.363,1.363,0,0,1,1.373-1.373m-1.241,8.554v-3.564c-1.267.185-1.822.818-1.822,1.663,0,.819.37,1.373,1.822,1.9m2.482,4.62v3.67c1.241-.185,1.874-.765,1.874-1.716,0-.871-.449-1.452-1.874-1.954" transform="translate(582.156 1737.917)" fill="#003278"/>
  </g>
</svg>
