<svg xmlns="http://www.w3.org/2000/svg" width="151" height="151" viewBox="0 0 151 151">
  <g id="Grupo_31253" data-name="Grupo 31253" transform="translate(-1074 -1896)">
    <g id="Elipse_190" data-name="Elipse 190" transform="translate(1074 1896)" fill="none" stroke="#e36489" stroke-width="6">
      <circle cx="75.5" cy="75.5" r="75.5" stroke="none"/>
      <circle cx="75.5" cy="75.5" r="72.5" fill="none"/>
    </g>
    <path id="Caminho_24509" data-name="Caminho 24509" d="M45,79.806,34.747,67.5H7.5A7.508,7.508,0,0,1,0,60V7.5A7.508,7.508,0,0,1,7.5,0h75A7.508,7.508,0,0,1,90,7.5V60a7.508,7.508,0,0,1-7.5,7.5H55.253ZM7.5,3.75A3.754,3.754,0,0,0,3.75,7.5V60A3.754,3.754,0,0,0,7.5,63.75h29l8.5,10.2,8.5-10.2h29A3.754,3.754,0,0,0,86.25,60V7.5A3.754,3.754,0,0,0,82.5,3.75Z" transform="translate(1105 1932.001)" fill="#003278"/>
    <path id="Caminho_24510" data-name="Caminho 24510" d="M36.245,52.361l-1.1-.8c-16.131-11.717-23.359-17.784-24.879-26.7-.386-2.267-1.172-10.044,4.967-14.9A15.12,15.12,0,0,1,27.468,7.445a15.066,15.066,0,0,1,8.777,5.423A15.47,15.47,0,0,1,57.258,9.952c6.141,4.858,5.355,12.636,4.969,14.9-1.521,8.919-8.749,14.987-24.879,26.7ZM24.116,10.848a10.745,10.745,0,0,0-6.559,2.046c-4.521,3.578-3.9,9.576-3.6,11.331,1.191,6.977,6.652,12.094,22.286,23.5,15.632-11.4,21.1-16.521,22.284-23.5.3-1.755.924-7.753-3.6-11.331A11.721,11.721,0,0,0,37.9,17.167l-1.658,3.142-1.659-3.142a11.363,11.363,0,0,0-7.892-6.052,12.486,12.486,0,0,0-2.578-.266" transform="translate(1113.755 1938.21)" fill="#003278"/>
  </g>
</svg>
