<svg xmlns="http://www.w3.org/2000/svg" width="151" height="151" viewBox="0 0 151 151">
  <g id="Grupo_31248" data-name="Grupo 31248" transform="translate(-696 -1527)">
    <g id="Elipse_185" data-name="Elipse 185" transform="translate(696 1527)" fill="none" stroke="#e36489" stroke-width="6">
      <circle cx="75.5" cy="75.5" r="75.5" stroke="none"/>
      <circle cx="75.5" cy="75.5" r="72.5" fill="none"/>
    </g>
    <path id="Caminho_24476" data-name="Caminho 24476" d="M158.7,33.835a8.583,8.583,0,1,1,8.583-8.583,8.593,8.593,0,0,1-8.583,8.583m0-14.757a6.174,6.174,0,1,0,6.174,6.174,6.181,6.181,0,0,0-6.174-6.174" transform="translate(602.35 1547.938)" fill="#003278"/>
    <path id="Caminho_24477" data-name="Caminho 24477" d="M180.468,270.34a5.261,5.261,0,0,1-5.235-4.747l-2.1-10.345c0-.017-.006-.034-.009-.051-.674-4.252-2.552-6.408-5.58-6.408H152.9a4.058,4.058,0,0,1-4.053-4.053v-25.5a8.6,8.6,0,1,1,17.192,0V222.7l.474.008c.852.015,2.022.051,3.479.107,2.333.089,4.673.2,4.95.214a4.755,4.755,0,0,1-.031,9.51H164.53l-.118,5.072,10.13.912.076.009a9.821,9.821,0,0,1,8.24,8.566l2.834,17.375c0,.024.007.048.01.071a5.261,5.261,0,0,1-5.214,5.8ZM175.5,254.794l2.1,10.385a1.215,1.215,0,0,1,.02.138,2.867,2.867,0,0,0,2.842,2.613h.011a2.851,2.851,0,0,0,2.829-3.109l-2.832-17.365c0-.02-.006-.04-.008-.06a7.407,7.407,0,0,0-6.181-6.478l-11.213-1.009a1.2,1.2,0,0,1-1.1-1.228l.143-6.142h-.8a4.947,4.947,0,0,1-4.468-2.848,1.207,1.207,0,0,1-.073-.2l-2.695-10.225a1.2,1.2,0,0,1,2.33-.614l2.665,10.11a2.529,2.529,0,0,0,2.241,1.369h13.588a2.346,2.346,0,0,0,0-4.691h-.058c-4.208-.2-8.9-.374-9.718-.318a1.2,1.2,0,0,1-1.505-1.167v-4.714a6.186,6.186,0,0,0-12.373,0v25.5a1.645,1.645,0,0,0,1.644,1.644h14.645c4.263,0,7.088,2.988,7.956,8.414m-9.877-29.934,0,0,0,0m0,0,0,0,0,0m.053-.049-.053.049c.018-.015.035-.032.053-.049m0,0,0,0,0,0m0,0,0,0,0,0" transform="translate(603.498 1372.66)" fill="#003278"/>
    <path id="Caminho_24478" data-name="Caminho 24478" d="M1.234,189.814a1.206,1.206,0,0,1-1.163-1.521c.317-1.168.607-2.4.86-3.673a1.2,1.2,0,1,1,2.363.471c-.264,1.323-.566,2.613-.9,3.834a1.205,1.205,0,0,1-1.162.889m1.843-10.137a1.206,1.206,0,0,1-1.2-1.333c.131-1.226.239-2.5.32-3.789a1.2,1.2,0,1,1,2.4.152c-.083,1.323-.194,2.634-.329,3.895a1.205,1.205,0,0,1-1.2,1.077m.522-10.3a1.2,1.2,0,0,1-1.2-1.2v-.046c0-1.236-.021-2.5-.062-3.77a1.2,1.2,0,1,1,2.408-.078c.042,1.292.063,2.587.063,3.848v.046a1.2,1.2,0,0,1-1.2,1.2m-.44-10.3a1.2,1.2,0,0,1-1.2-1.1c-.105-1.261-.231-2.539-.374-3.8a1.2,1.2,0,1,1,2.394-.271c.145,1.284.274,2.586.381,3.871a1.2,1.2,0,0,1-1.1,1.3c-.034,0-.068,0-.1,0M1.894,148.847a1.205,1.205,0,0,1-1.187-1.009C.5,146.562.266,145.3.023,144.085a1.2,1.2,0,0,1,2.363-.473c.248,1.241.483,2.53.7,3.834a1.205,1.205,0,0,1-.993,1.385,1.22,1.22,0,0,1-.2.016" transform="translate(738 1434.105)" fill="#003278"/>
    <path id="Caminho_24479" data-name="Caminho 24479" d="M114.619,594.787H97.062a5.881,5.881,0,0,1-5.874-5.874V586.32a1.2,1.2,0,0,1,1.2-1.2h24.3a3.8,3.8,0,0,1,3.8,3.8,5.881,5.881,0,0,1-5.874,5.874M93.6,587.525v1.388a3.468,3.468,0,0,0,3.465,3.465h17.557a3.468,3.468,0,0,0,3.465-3.465,1.39,1.39,0,0,0-1.388-1.388Z" transform="translate(655.601 1034.28)" fill="#003278"/>
    <path id="Caminho_24480" data-name="Caminho 24480" d="M229.118,681.139a1.2,1.2,0,0,1-1.2-1.2V666.692a1.2,1.2,0,0,1,2.41,0v13.242a1.2,1.2,0,0,1-1.2,1.2" transform="translate(532.054 961.654)" fill="#003278"/>
    <path id="Caminho_24481" data-name="Caminho 24481" d="M84.466,178.193a1.206,1.206,0,0,1-1.194-1.377c2.463-17.034,2.207-30.974-.781-42.617a1.2,1.2,0,1,1,2.334-.6,88.928,88.928,0,0,1,2.538,22.164,150.987,150.987,0,0,1-1.706,21.4,1.205,1.205,0,0,1-1.191,1.033" transform="translate(663.494 1443.096)" fill="#003278"/>
    <path id="Caminho_24482" data-name="Caminho 24482" d="M444.952,452.207a1.2,1.2,0,0,1-1.2-1.2l-.078-36.573H420a1.2,1.2,0,0,1,0-2.41h24.874a1.2,1.2,0,0,1,1.2,1.2L446.157,451a1.2,1.2,0,0,1-1.2,1.207Z" transform="translate(359.572 1190.69)" fill="#003278"/>
    <path id="Caminho_24483" data-name="Caminho 24483" d="M521.081,26.759h-3.143a1.2,1.2,0,0,1-1.2-1.2V1.2a1.2,1.2,0,0,1,1.2-1.2h3.143a4.1,4.1,0,0,1,4.1,4.1V22.661a4.1,4.1,0,0,1-4.1,4.1m-1.938-2.41h1.938a1.69,1.69,0,0,0,1.688-1.688V4.1a1.69,1.69,0,0,0-1.688-1.688h-1.938Z" transform="translate(271.07 1563.001)" fill="#003278"/>
    <path id="Caminho_24484" data-name="Caminho 24484" d="M589.665,161.708a1.2,1.2,0,0,1-1.2-1.2V137.954a2.99,2.99,0,0,0-2.987-2.987,1.2,1.2,0,1,1,0-2.41,5.4,5.4,0,0,1,5.4,5.4V160.5a1.2,1.2,0,0,1-1.2,1.2" transform="translate(210.044 1443.218)" fill="#003278"/>
    <path id="Caminho_24485" data-name="Caminho 24485" d="M171.668,806.451H157.951a1.2,1.2,0,1,1,0-2.41h13.718a1.2,1.2,0,1,1,0,2.41" transform="translate(596.362 836.454)" fill="#003278"/>
  </g>
</svg>
