<svg width="134" height="60" viewBox="0 0 134 60" fill="none" xmlns="http://www.w3.org/2000/svg">
<g clip-path="url(#clip0_4_33)">
<path fill-rule="evenodd" clip-rule="evenodd" d="M24.2675 59.558C22.863 59.7034 21.4026 59.7762 19.903 59.765V59.8937L19.3323 59.8769C11.8903 59.6978 5.27651 55.3166 2.06472 48.9546C1.43244 47.7012 0.928845 46.3639 0.576331 44.9762C0.229413 43.5885 0.0335727 42.1337 0 40.6341V40.2593V40.2425C0.179054 31.9668 4.81768 26.0132 11.4707 23.2491C12.7688 22.7119 14.1565 22.2923 15.6001 22.0013C17.0381 21.7103 18.5433 21.5537 20.0765 21.5313H20.4626H33.0915V18.2132C33.0915 15.7904 31.95 13.7033 30.2098 12.2205C28.4473 10.7153 26.058 9.8312 23.5792 9.8312H23.568C21.0725 9.8312 18.9126 10.139 16.6465 10.8048C14.3579 11.4819 11.9575 12.5282 9.00867 14.0054L8.4827 14.2684L8.24769 13.7256L5.01352 6.26131L4.81209 5.79129L5.26532 5.54509C9.0982 3.47477 12.3156 2.11508 15.533 1.26457C18.7559 0.414063 21.9733 0.0615499 25.8118 0H25.823H25.851C30.6295 0.00559545 35.4807 1.60589 39.1346 4.61065C42.8108 7.63219 45.2896 12.0694 45.2952 17.7208V17.7376L45.4183 49.3463V49.5813L45.256 49.7435C41.1321 53.8674 35.4751 57.3086 28.52 58.8697C27.1603 59.1775 25.7391 59.4125 24.2731 59.5635L24.2675 59.558ZM32.8509 46.8563V31.2282L23.0812 31.1107H23.0477C20.0877 31.1107 17.5809 31.9668 15.8239 33.5055C14.0837 35.0275 13.0598 37.2489 13.0598 39.9907V40.0075C13.0598 43.6333 15.1357 47.1417 18.437 48.9714C19.0917 49.3351 19.8023 49.6316 20.5465 49.8498C21.2907 50.0681 22.0796 50.208 22.9022 50.2527H22.9134L23.3274 50.2695C26.3434 50.2695 29.2418 49.1504 31.2114 47.9866C31.5807 47.7683 31.9276 47.5389 32.241 47.3151C32.4648 47.1528 32.6662 47.0018 32.8397 46.8507L32.8509 46.8563Z" fill="#0033A1"/>
<path fill-rule="evenodd" clip-rule="evenodd" d="M123.313 58.271C119.759 59.3957 115.999 60.0056 111.898 60.0056C101.378 59.9161 94.0372 52.4909 90.5792 43.2192C89.8909 41.3783 89.3594 39.4647 88.9845 37.5343C88.6096 35.6038 88.3913 33.6286 88.3354 31.6702C88.3242 31.3121 88.3186 30.9764 88.3186 30.6798C88.3186 23.1372 90.5456 15.5833 94.7646 9.86477C95.5871 8.75128 96.488 7.69933 97.4616 6.73691C98.4352 5.7745 99.4815 4.89042 100.606 4.10705L100.623 4.09586H100.629C106.453 -0.011197 114.349 -0.92885 122.042 1.20302C123.542 1.61708 125.036 2.15424 126.502 2.79772C127.968 3.44679 129.412 4.20777 130.81 5.08066L130.984 5.19257L131.426 5.47234L131.18 5.93117L127.448 12.8975L127.196 13.3675L126.72 13.1381C123.419 11.577 120.112 10.4411 117.085 9.99906C116.492 9.91513 115.91 9.85358 115.345 9.8256C114.779 9.79203 114.226 9.79203 113.694 9.8256L113.554 9.83679C108.009 10.1669 104.115 15.3763 102.296 21.8055C101.932 23.098 101.647 24.4521 101.451 25.823C101.255 27.1939 101.149 28.5871 101.138 29.958V30.6798C101.138 37.2153 103.493 44.0977 107.869 47.6788C108.725 48.3838 109.665 48.9546 110.667 49.3742C111.668 49.7883 112.754 50.0513 113.912 50.1296C114.125 50.1464 114.332 50.1576 114.517 50.1576C119.821 50.2695 123.917 48.2607 128.505 46.0058L129.568 45.4854L130.072 45.2392L130.318 45.7428L133.675 52.7091L133.894 53.1568L133.474 53.4197C130.201 55.4957 126.854 57.1407 123.313 58.2654V58.271Z" fill="#0033A1"/>
<path fill-rule="evenodd" clip-rule="evenodd" d="M80.8095 49.9618C79.4722 50.622 78.1461 51.1424 76.6689 51.5341C72.3548 52.7707 66.9608 53.2295 62.2606 51.7747C61.3038 51.4781 60.3805 51.1088 59.5076 50.6556C58.6235 50.1968 57.7786 49.6484 56.9953 49.0049L56.9841 48.9938L56.7379 48.7923L56.7267 48.7811C53.3918 45.9219 50.9466 41.7141 49.7995 36.9691C49.5757 36.0291 49.3966 35.0555 49.2679 34.0651C49.1448 33.0803 49.0721 32.0787 49.0609 31.0715V31.0603V30.4057V30.3945C49.1281 22.7567 51.3159 14.4922 57.0512 10.055C58.2319 9.14297 59.558 8.39318 61.0296 7.85042C62.4956 7.30766 64.1239 6.96074 65.9144 6.85443C66.3397 6.83205 66.7593 6.81526 67.151 6.81526C73.5802 6.81526 77.9334 9.11499 80.72 13.25C83.4226 17.2676 84.5808 22.9973 84.6759 30.0252L84.6927 31.1387H60.1119L60.1231 31.7038C60.235 35.5871 61.3261 38.7093 63.0439 40.8692C64.7002 42.9507 66.9664 44.1425 69.4899 44.2432C69.6969 44.2488 69.904 44.2544 70.1054 44.2432H70.1166C72.1309 44.1985 73.8488 43.8459 75.5945 43.2472C77.3907 42.6317 79.226 41.7588 81.425 40.7069L82.4042 40.2369L82.8854 41.2161L85.3138 46.1625L85.7447 47.0409L84.9221 47.5725C83.445 48.5237 82.13 49.3127 80.8151 49.9674L80.8095 49.9618ZM67.621 15.0797H67.4308C64.3253 15.0797 62.4508 17.1668 61.4157 20.0821C61.1918 20.7088 61.0072 21.3578 60.8617 22.0125C60.7946 22.3147 60.7274 22.6336 60.6715 22.9581H73.6249C73.3284 19.9366 72.2596 17.3123 70.3908 15.9918C70.0047 15.7176 69.585 15.4994 69.1262 15.3483C68.6674 15.1916 68.1582 15.1021 67.6154 15.0853L67.621 15.0797Z" fill="#00B2E3"/>
</g>
<defs>
<clipPath id="clip0_4_33">
<rect width="133.893" height="60" fill="white"/>
</clipPath>
</defs>
</svg>
