<svg xmlns="http://www.w3.org/2000/svg" width="151" height="151" viewBox="0 0 151 151">
  <g id="Grupo_31250" data-name="Grupo 31250" transform="translate(-1452 -1527)">
    <g id="Elipse_187" data-name="Elipse 187" transform="translate(1452 1527)" fill="none" stroke="#e36489" stroke-width="6">
      <circle cx="75.5" cy="75.5" r="75.5" stroke="none"/>
      <circle cx="75.5" cy="75.5" r="72.5" fill="none"/>
    </g>
    <path id="Caminho_24495" data-name="Caminho 24495" d="M897.646,180.576a7.266,7.266,0,1,0-5.138-2.128,7.219,7.219,0,0,0,5.138,2.128m0-12.168a4.9,4.9,0,1,1-4.9,4.9,4.907,4.907,0,0,1,4.9-4.9" transform="translate(628.822 1398.148)" fill="#003278"/>
    <path id="Caminho_24496" data-name="Caminho 24496" d="M805.3,605.86a3.531,3.531,0,0,0,3.527,3.527c.079,0,.158,0,.237-.008l.728,13.172a3.945,3.945,0,0,0,3.94,3.925h4.012a3.945,3.945,0,0,0,3.941-3.925l.728-13.172q.119.008.237.008a3.532,3.532,0,0,0,3.528-3.527V591.588a6.157,6.157,0,0,0-6.157-6.156h-8.565a6.156,6.156,0,0,0-6.157,6.156Zm2.366-14.273a3.8,3.8,0,0,1,3.791-3.791h8.565a3.8,3.8,0,0,1,3.791,3.791V605.86A1.163,1.163,0,0,1,822.448,607V596.6a1.183,1.183,0,0,0-2.366,0V608.82l-.759,13.688c0,.01,0,.019,0,.029a1.577,1.577,0,0,1-1.575,1.575h-4.012a1.577,1.577,0,0,1-1.575-1.575c0-.01,0-.019,0-.029l-.759-13.769V596.6a1.183,1.183,0,0,0-2.366,0V607a1.163,1.163,0,0,1-1.367-1.144Z" transform="translate(710.726 994.399)" fill="#003278"/>
    <path id="Caminho_24497" data-name="Caminho 24497" d="M459.785,14.537a7.267,7.267,0,0,0,5.138-12.4,7.267,7.267,0,0,0-10.277,10.277,7.219,7.219,0,0,0,5.138,2.128m0-12.168a4.9,4.9,0,1,1-4.9,4.9,4.907,4.907,0,0,1,4.9-4.9" transform="translate(1050.356 1557.996)" fill="#003278"/>
    <path id="Caminho_24498" data-name="Caminho 24498" d="M370.97,443.348c.079,0,.158,0,.237-.008l.728,13.172a3.945,3.945,0,0,0,3.94,3.926h4.012a3.945,3.945,0,0,0,3.94-3.926l.161-2.916c0-.038.005-.075.005-.112,0,0,0-.005,0-.008a1.183,1.183,0,0,0-2.366.005l-.166,2.987c0,.01,0,.019,0,.029a1.577,1.577,0,0,1-1.575,1.575h-4.012A1.577,1.577,0,0,1,374.3,456.5q0-.014,0-.029L373.54,442.7V430.563a1.183,1.183,0,1,0-2.366,0v10.4a1.163,1.163,0,0,1-1.367-1.144V425.548a3.8,3.8,0,0,1,3.791-3.791h8.933a1.183,1.183,0,1,0,0-2.365H373.6a6.157,6.157,0,0,0-6.157,6.157V439.82a3.531,3.531,0,0,0,3.528,3.527" transform="translate(1132.259 1154.247)" fill="#003278"/>
    <path id="Caminho_24499" data-name="Caminho 24499" d="M1335.5,14.537a7.267,7.267,0,0,0,5.138-12.4,7.267,7.267,0,1,0-10.277,10.277,7.219,7.219,0,0,0,5.138,2.128m0-12.168a4.9,4.9,0,1,1-4.9,4.9,4.907,4.907,0,0,1,4.9-4.9" transform="translate(207.292 1557.996)" fill="#003278"/>
    <path id="Caminho_24500" data-name="Caminho 24500" d="M1360.638,419.39a1.183,1.183,0,0,0,0,2.366h8.933a3.8,3.8,0,0,1,3.791,3.791v14.273a1.162,1.162,0,0,1-1.367,1.144v-10.4a1.183,1.183,0,1,0-2.365,0V442.7l-.759,13.769c0,.01,0,.019,0,.029a1.577,1.577,0,0,1-1.575,1.575h-4.012a1.577,1.577,0,0,1-1.575-1.575c0-.01,0-.019,0-.029l-.166-2.987a1.183,1.183,0,0,0-2.365,0h0c0,.036,0,.074.005.112l.161,2.916a3.945,3.945,0,0,0,3.94,3.926h4.012a3.945,3.945,0,0,0,3.94-3.925l.728-13.172q.119.008.237.008a3.531,3.531,0,0,0,3.527-3.527V425.547a6.156,6.156,0,0,0-6.157-6.157Z" transform="translate(177.506 1154.248)" fill="#003278"/>
    <path id="Caminho_24501" data-name="Caminho 24501" d="M66.377,1639.033a5.348,5.348,0,0,0-4.059-2.14c-.125-.006-.251-.007-.377,0a5.312,5.312,0,0,0-3.053,1.054l-.013.01-7.666,5.664a1.214,1.214,0,0,0-.239,1.7,1.217,1.217,0,0,0,1,.486,1.19,1.19,0,0,0,.693-.24l.046-.034c.026-.018.052-.037.077-.057l.011-.009,7.532-5.565.007,0a2.9,2.9,0,0,1,1.669-.575c.069,0,.138,0,.206,0a2.934,2.934,0,0,1,1.641,5.271l-.008.006L43.3,1659.907a2.818,2.818,0,0,1-.731.4,2.884,2.884,0,0,1-.945.182c-.1,0-.189,0-.278-.006l-.027,0-19.587-4.459a1.411,1.411,0,0,0-.146-.028,5.463,5.463,0,0,0-.819-.042,5.319,5.319,0,0,0-3.055,1.06l-.014.01-1.227.919-8.214-10.965,8.708-6.559a6.055,6.055,0,0,1,3.5-1.22,5.242,5.242,0,0,1,1.486.19l4.87,1.28,16.99,4.466a2.928,2.928,0,0,1,2.118,3.485,2.826,2.826,0,0,1-1.307,1.77,2.95,2.95,0,0,1-1.442.42,3.033,3.033,0,0,1-.777-.082l-.042-.01-11.534-2.493a1.232,1.232,0,0,0-.272-.024,1.214,1.214,0,0,0-.219,2.4l11.54,2.494a5.45,5.45,0,0,0,1.372.141,5.372,5.372,0,0,0,2.625-.766,5.234,5.234,0,0,0,2.416-3.282,5.368,5.368,0,0,0-3.875-6.406l-16.989-4.471-.431-.114c-.321-.085-.744-.2-1.233-.333-1.44-.392-3.412-.929-3.959-1.008a8.219,8.219,0,0,0-1.4-.088,8.472,8.472,0,0,0-4.889,1.708L6.8,1645.034l-.945-1.262a1.212,1.212,0,0,0-.918-.485H4.853a1.2,1.2,0,0,0-.692.239l0,0-3.643,2.719-.023.017-.027.021a1.22,1.22,0,0,0,.7,2.177h.086a1.2,1.2,0,0,0,.748-.28l.02-.016,2.622-1.967,11.581,15.459-2.413,1.813-.013.008a1.22,1.22,0,0,0,.592,2.254c.029,0,.059,0,.085,0a1.2,1.2,0,0,0,.705-.246l3.475-2.617a1.217,1.217,0,0,0,.239-1.7l-.966-1.289,1.227-.92.008-.006a2.9,2.9,0,0,1,1.669-.578,2.989,2.989,0,0,1,.377.014l.056.009,19.6,4.462.032.006.031.005.033.005.025,0,.048.006a5.392,5.392,0,0,0,2.39-.314,5.4,5.4,0,0,0,1.333-.73l20.561-15.325a5.367,5.367,0,0,0,1.06-7.493" transform="translate(1486 -17.735)" fill="#003278"/>
  </g>
</svg>
