<svg xmlns="http://www.w3.org/2000/svg" width="151" height="151" viewBox="0 0 151 151">
  <g id="Grupo_31247" data-name="Grupo 31247" transform="translate(-318 -1527)">
    <g id="Elipse_184" data-name="Elipse 184" transform="translate(318 1527)" fill="none" stroke="#e36489" stroke-width="6">
      <circle cx="75.5" cy="75.5" r="75.5" stroke="none"/>
      <circle cx="75.5" cy="75.5" r="72.5" fill="none"/>
    </g>
    <path id="Caminho_24467" data-name="Caminho 24467" d="M61.9,80V12.465L49.426,0Q24.714,0,0,0V80ZM14.435,52.479a3.7,3.7,0,0,1,3.341,5.294,5.511,5.511,0,0,1,1.289.912,3.79,3.79,0,0,1,1.228,2.7v4.39H8.577v-4.39a3.791,3.791,0,0,1,1.228-2.7,5.485,5.485,0,0,1,1.29-.913,3.7,3.7,0,0,1,3.341-5.293m18.2,13.3H22.741V63.561h9.894ZM41,60.233H22.741V58.02H41ZM16.13,59.47a3.687,3.687,0,0,1-3.389,0,3.666,3.666,0,0,0-1.405.806,1.59,1.59,0,0,0-.545,1.109v2.177H18.08V61.384a1.589,1.589,0,0,0-.545-1.109,3.7,3.7,0,0,0-1.4-.805m-1.694-4.778a1.489,1.489,0,1,0,1.489,1.489,1.508,1.508,0,0,0-1.489-1.489m36.67,8.869H45.592V58.048h5.513Zm-7.726,2.213h9.939V55.835H43.379ZM14.435,33.348a3.7,3.7,0,0,1,3.341,5.294,5.51,5.51,0,0,1,1.289.912,3.79,3.79,0,0,1,1.228,2.7v4.39H8.577v-4.39a3.79,3.79,0,0,1,1.228-2.7,5.484,5.484,0,0,1,1.29-.913,3.7,3.7,0,0,1,3.341-5.293m18.2,13.3H22.741V44.431h9.894ZM41,41.1H22.741V38.89H41ZM16.13,40.34a3.687,3.687,0,0,1-3.389,0,3.667,3.667,0,0,0-1.405.806,1.59,1.59,0,0,0-.545,1.109v2.177H18.08V42.254a1.589,1.589,0,0,0-.545-1.109,3.7,3.7,0,0,0-1.4-.805m-1.694-4.778a1.489,1.489,0,1,0,1.489,1.489,1.508,1.508,0,0,0-1.489-1.489m36.67,8.869H45.592V38.918h5.513Zm-7.726,2.213h9.939V36.7H43.379ZM14.435,14.218a3.7,3.7,0,0,1,3.341,5.294,5.508,5.508,0,0,1,1.289.912,3.791,3.791,0,0,1,1.228,2.7v4.39H8.577v-4.39a3.791,3.791,0,0,1,1.228-2.7,5.486,5.486,0,0,1,1.29-.913,3.7,3.7,0,0,1,3.341-5.293m18.2,13.3H22.741V25.3h9.894ZM41,21.973H22.741V19.759H41ZM16.13,21.209a3.687,3.687,0,0,1-3.389,0,3.666,3.666,0,0,0-1.405.806,1.59,1.59,0,0,0-.545,1.109V25.3H18.08V23.123a1.589,1.589,0,0,0-.545-1.109,3.7,3.7,0,0,0-1.4-.805m-1.694-4.778a1.489,1.489,0,1,0,1.489,1.489,1.508,1.508,0,0,0-1.489-1.489M51.105,25.3H45.592V19.787h5.513Zm-7.726,2.213h9.939V17.574H43.379Zm15.75-13.022V77.229H2.767V2.763H47.4V14.491Z" transform="translate(363 1563.004)" fill="#003278"/>
  </g>
</svg>
