<svg xmlns="http://www.w3.org/2000/svg" xmlns:xlink="http://www.w3.org/1999/xlink" width="140.19" height="58" viewBox="0 0 140.19 58">
  <defs>
    <clipPath id="clip-path">
      <rect id="Retângulo_52" data-name="Retângulo 52" width="140.19" height="58" fill="none"/>
    </clipPath>
  </defs>
  <g id="Grupo_30929" data-name="Grupo 30929" transform="translate(-590 241)">
    <g id="Grupo_30928" data-name="Grupo 30928" transform="translate(590 -241)">
      <g id="Grupo_30927" data-name="Grupo 30927" clip-path="url(#clip-path)">
        <path id="Caminho_24464" data-name="Caminho 24464" d="M25.412,57.567a44.4,44.4,0,0,1-4.567.2v.122l-.6-.014A21.128,21.128,0,0,1,2.165,47.317,17.832,17.832,0,0,1,.609,43.474,17.255,17.255,0,0,1,0,39.28v0l0-.358V38.9c.188-8,5.041-13.756,12.012-16.426a24.6,24.6,0,0,1,4.324-1.206,27.862,27.862,0,0,1,4.686-.456h0l.4,0,0,0H34.656V17.6h0a7.371,7.371,0,0,0-3.015-5.791v0A11.374,11.374,0,0,0,24.7,9.5v0h-.012a26.682,26.682,0,0,0-7.245.939,51.757,51.757,0,0,0-8,3.092l-.552.256-.244-.525L5.26,6.048l-.214-.453.472-.236A50.8,50.8,0,0,1,16.266,1.221,47.016,47.016,0,0,1,27.024,0l.009,0h.028V0a23.393,23.393,0,0,1,13.91,4.454,15.558,15.558,0,0,1,6.451,12.67h0v.016h0l.131,30.553v.226l-.17.158A36.717,36.717,0,0,1,29.861,56.9a41.247,41.247,0,0,1-4.449.671M34.4,45.291V30.184l-10.229-.113h-.032a11.953,11.953,0,0,0-7.562,2.317,7.8,7.8,0,0,0-2.895,6.271h0v.015a9.972,9.972,0,0,0,5.629,8.666,11.272,11.272,0,0,0,2.209.85,12.046,12.046,0,0,0,2.468.392h.009l.434.016a17.957,17.957,0,0,0,8.257-2.205h0c.386-.21.752-.432,1.08-.651h0c.234-.155.445-.305.628-.45" transform="translate(0 0)" fill="#002891" fill-rule="evenodd"/>
        <path id="Caminho_24465" data-name="Caminho 24465" d="M194.474,56.4a42.133,42.133,0,0,1-11.952,1.675l0,0c-11.017-.085-18.7-7.26-22.322-16.225a32.6,32.6,0,0,1-2.348-11.164v0c-.009-.347-.015-.669-.015-.956a32.505,32.505,0,0,1,6.747-20.12,26.462,26.462,0,0,1,2.826-3.025A24.932,24.932,0,0,1,170.7,4.042h0l.016-.012.006,0c6.106-3.961,14.375-4.846,22.426-2.787a36.269,36.269,0,0,1,4.667,1.54,36.884,36.884,0,0,1,4.511,2.2l0,0,.183.107.46.268-.255.442L198.8,12.539l-.265.455-.5-.22a38.673,38.673,0,0,0-10.089-3.032c-.622-.082-1.231-.141-1.819-.169h0c-.589-.03-1.17-.031-1.729,0l-.148.009c-5.8.32-9.882,5.354-11.786,11.569a27.935,27.935,0,0,0-.883,3.886,28.584,28.584,0,0,0-.33,4v.7h0c0,6.319,2.467,12.971,7.05,16.433v0a11.918,11.918,0,0,0,2.932,1.635,11.558,11.558,0,0,0,3.4.73c.221.015.437.024.63.025h0c5.554.11,9.839-1.832,14.647-4.012l1.111-.5.528-.239.255.488,3.518,6.736.226.434-.439.256A47.181,47.181,0,0,1,194.474,56.4" transform="translate(-65.365 -0.075)" fill="#002891" fill-rule="evenodd"/>
        <path id="Caminho_24466" data-name="Caminho 24466" d="M120.926,53.876a24.032,24.032,0,0,1-4.333,1.519v0a29.568,29.568,0,0,1-15.086.236,18.125,18.125,0,0,1-2.882-1.081l0,0a15.462,15.462,0,0,1-2.633-1.593l-.012-.008-.256-.2-.009-.009a21.5,21.5,0,0,1-7.253-11.42,23.807,23.807,0,0,1-.771-5.7l0-.013V34.97l0-.009c.067-7.38,2.357-15.372,8.361-19.663a16.114,16.114,0,0,1,4.163-2.134,19.038,19.038,0,0,1,5.113-.964c.448-.024.883-.039,1.3-.039,6.73,0,11.289,2.222,14.209,6.222,2.831,3.881,4.041,9.424,4.139,16.213l.016,1.079H99.255l.011.547a14.032,14.032,0,0,0,3.058,8.86,9.217,9.217,0,0,0,6.751,3.259c.214.007.434.008.645,0h.012a19.765,19.765,0,0,0,5.737-.962,60.368,60.368,0,0,0,6.1-2.454l1.025-.453.5.945,2.541,4.782.449.848-.86.513a44.8,44.8,0,0,1-4.3,2.313m-13.808-33.72-.2,0v0c-3.252,0-5.215,2.016-6.3,4.833a14.793,14.793,0,0,0-.577,1.864c-.071.291-.138.6-.2.915h13.563c-.313-2.921-1.431-5.457-3.386-6.736a5.2,5.2,0,0,0-1.323-.624,5.932,5.932,0,0,0-1.581-.254" transform="translate(-36.315 -5.583)" fill="#00a6dd" fill-rule="evenodd"/>
      </g>
    </g>
  </g>
</svg>
