<svg xmlns="http://www.w3.org/2000/svg" xmlns:xlink="http://www.w3.org/1999/xlink" width="122" height="50.475" viewBox="0 0 122 50.475">
  <defs>
    <clipPath id="clip-path">
      <rect id="Retângulo_52" data-name="Retângulo 52" width="122" height="50.475" fill="#fff"/>
    </clipPath>
  </defs>
  <g id="Grupo_30983" data-name="Grupo 30983" transform="translate(-590 241)">
    <g id="Grupo_30928" data-name="Grupo 30928" transform="translate(590 -241)">
      <g id="Grupo_30927" data-name="Grupo 30927" clip-path="url(#clip-path)">
        <path id="Caminho_24464" data-name="Caminho 24464" d="M22.114,50.1a38.637,38.637,0,0,1-3.975.176v.106l-.522-.012a18.386,18.386,0,0,1-15.733-9.19A15.519,15.519,0,0,1,.53,37.833,15.016,15.016,0,0,1,0,34.183v0l0-.312v-.012c.164-6.961,4.387-11.971,10.454-14.3a21.4,21.4,0,0,1,3.763-1.05,24.247,24.247,0,0,1,4.078-.4h0l.349,0H30.159V15.319h0a6.414,6.414,0,0,0-2.624-5.039h0A9.9,9.9,0,0,0,21.5,8.268h-.01a23.22,23.22,0,0,0-6.305.817,45.042,45.042,0,0,0-6.96,2.691L7.739,12l-.213-.457L4.577,5.263l-.186-.394L4.8,4.663a44.212,44.212,0,0,1,9.354-3.6A40.916,40.916,0,0,1,23.518,0h.032A20.358,20.358,0,0,1,35.655,3.877,13.539,13.539,0,0,1,41.269,14.9h0v.014h0L41.383,41.5v.2l-.148.137a31.953,31.953,0,0,1-15.248,7.675,35.9,35.9,0,0,1-3.872.584m7.818-10.683V26.267l-8.9-.1H21a10.4,10.4,0,0,0-6.581,2.016A6.785,6.785,0,0,0,11.9,33.643h0v.013A8.678,8.678,0,0,0,16.8,41.2a9.809,9.809,0,0,0,1.922.739,10.483,10.483,0,0,0,2.148.341h.008l.377.014a15.627,15.627,0,0,0,7.185-1.919h0c.336-.183.655-.376.94-.566h0c.2-.135.387-.265.547-.392" transform="translate(0 0.001)" fill="#fff" fill-rule="evenodd"/>
        <path id="Caminho_24465" data-name="Caminho 24465" d="M189.72,49.1a36.666,36.666,0,0,1-10.4,1.458h0c-9.588-.074-16.274-6.318-19.426-14.12a28.374,28.374,0,0,1-2.043-9.715h0c-.008-.3-.013-.582-.013-.832A28.288,28.288,0,0,1,163.7,8.383a23.028,23.028,0,0,1,2.46-2.632,21.7,21.7,0,0,1,2.864-2.212h0l.014-.01.006,0C174.361.077,181.556-.693,188.563,1.1a31.564,31.564,0,0,1,4.061,1.341,32.1,32.1,0,0,1,3.925,1.919l0,0,.159.093.4.233-.222.385-3.4,5.862-.23.4-.435-.192a33.655,33.655,0,0,0-8.78-2.639c-.541-.072-1.071-.122-1.583-.147h0c-.513-.026-1.018-.027-1.505,0l-.129.008c-5.051.278-8.6,4.659-10.257,10.068a24.312,24.312,0,0,0-.769,3.382,24.875,24.875,0,0,0-.288,3.479v.607h0c0,5.5,2.147,11.288,6.135,14.3h0a10.372,10.372,0,0,0,2.552,1.423,10.058,10.058,0,0,0,2.96.635c.193.013.38.021.549.022h0c4.833.1,8.563-1.595,12.747-3.491l.967-.438.459-.208.222.425,3.062,5.862.2.378-.382.223A41.059,41.059,0,0,1,189.72,49.1" transform="translate(-77.362 -0.087)" fill="#fff" fill-rule="evenodd"/>
        <path id="Caminho_24466" data-name="Caminho 24466" d="M116.613,48.463a20.914,20.914,0,0,1-3.771,1.322v0a25.731,25.731,0,0,1-13.128.205,15.773,15.773,0,0,1-2.508-.94h0a13.455,13.455,0,0,1-2.292-1.386l-.01-.007-.223-.172-.008-.008a18.714,18.714,0,0,1-6.312-9.938,20.718,20.718,0,0,1-.671-4.962l0-.011V32.01l0-.008c.059-6.423,2.052-13.378,7.276-17.112a14.023,14.023,0,0,1,3.623-1.857,16.568,16.568,0,0,1,4.45-.839c.39-.021.769-.034,1.129-.034,5.857,0,9.825,1.934,12.365,5.414,2.464,3.378,3.516,8.2,3.6,14.11l.014.939h-22.4l.009.476a12.211,12.211,0,0,0,2.661,7.71,8.021,8.021,0,0,0,5.875,2.836c.187.006.378.007.561,0h.011a17.2,17.2,0,0,0,4.993-.837,52.534,52.534,0,0,0,5.311-2.136l.892-.394.438.822,2.211,4.161.391.738-.748.446a38.986,38.986,0,0,1-3.745,2.013M104.6,19.118l-.172,0v0c-2.83,0-4.539,1.754-5.483,4.206a12.876,12.876,0,0,0-.5,1.622c-.062.253-.12.523-.171.8h11.8c-.272-2.542-1.246-4.749-2.947-5.862a4.522,4.522,0,0,0-1.151-.543,5.162,5.162,0,0,0-1.376-.221" transform="translate(-42.981 -6.437)" fill="#fff" fill-rule="evenodd"/>
      </g>
    </g>
  </g>
</svg>
