<svg id="Grupo_31242" data-name="Grupo 31242" xmlns="http://www.w3.org/2000/svg" width="38" height="38" viewBox="0 0 38 38">
  <g id="Grupo_282" data-name="Grupo 282" transform="translate(12.337 7.589)">
    <path id="Caminho_585" data-name="Caminho 585" d="M803.884,83.264q0-1.2,0-2.405,0-3.9,0-7.794c0-.2,0-.2-.2-.2-1.045,0-2.09,0-3.134,0-.137,0-.182-.028-.182-.176.006-1.241,0-2.481,0-3.722,0-.185,0-.186.182-.186,1.054,0,2.108,0,3.163,0,.129,0,.166-.036.166-.164,0-1.031-.01-2.062,0-3.092a5.682,5.682,0,0,1,.534-2.4,4.483,4.483,0,0,1,3.3-2.549,5.9,5.9,0,0,1,1.386-.141c.731.02,1.463.035,2.194.063.274.01.546.057.82.073.12.007.145.053.144.162q0,1.686,0,3.372c0,.127-.043.158-.161.157-.639,0-1.278-.007-1.917,0a6.289,6.289,0,0,0-.766.056,1.361,1.361,0,0,0-1.244,1.237,5.885,5.885,0,0,0-.055.752c-.007.774,0,1.549-.005,2.323,0,.117.035.15.15.149,1.227,0,2.454,0,3.68,0,.186,0,.192,0,.167.186-.087.664-.181,1.328-.267,1.992-.072.554-.137,1.109-.2,1.664,0,.032-.01.064-.012.1-.005.109-.058.146-.17.145-.56-.006-1.119,0-1.679,0h-1.469c-.192,0-.192,0-.192.187v7.262c0,.922,0,2.682,0,2.95Z" transform="translate(-800.37 -60.441)" fill="#fff"/>
  </g>
  <g id="Grupo_283" data-name="Grupo 283" transform="translate(0)">
    <path id="Caminho_586" data-name="Caminho 586" d="M770.389,68.312a19,19,0,1,1,19-19A19.022,19.022,0,0,1,770.389,68.312Zm0-35.985a16.985,16.985,0,1,0,16.985,16.985A17,17,0,0,0,770.389,32.327Z" transform="translate(-751.389 -30.312)" fill="#fff"/>
  </g>
</svg>
