<svg id="Grupo_292" data-name="Grupo 292" xmlns="http://www.w3.org/2000/svg" width="38" height="38" viewBox="0 0 38 38">
  <g id="Grupo_290" data-name="Grupo 290">
    <path id="Caminho_592" data-name="Caminho 592" d="M1129.331,68.312a19,19,0,1,1,19-19A19.022,19.022,0,0,1,1129.331,68.312Zm0-35.985a16.985,16.985,0,1,0,16.985,16.985A17,17,0,0,0,1129.331,32.327Z" transform="translate(-1110.331 -30.312)" fill="#fff"/>
  </g>
  <g id="Grupo_291" data-name="Grupo 291" transform="translate(8.392 8.283)">
    <path id="Caminho_593" data-name="Caminho 593" d="M1164.572,67.8a5.622,5.622,0,0,0-5.346-4.5c-.243-.014-.483-.066-.724-.1h-8.486c-.572.084-1.151.135-1.714.258a5.681,5.681,0,0,0-4.552,5.438c-.014.246-.065.489-.1.734V78.2c.08.561.13,1.127.244,1.681a5.665,5.665,0,0,0,5.4,4.643c.278.016.554.07.831.106h8.168c.677-.1,1.365-.143,2.027-.3a5.641,5.641,0,0,0,4.444-5.4c.018-.317.07-.631.106-.947V69.735C1164.77,69.09,1164.721,68.433,1164.572,67.8Zm-1.723,10.763a4.115,4.115,0,0,1-.927,2.676,3.879,3.879,0,0,1-3.008,1.349c-1.571.047-3.145.012-4.717.012v0c-1.5,0-3.006.042-4.506-.01a3.811,3.811,0,0,1-4.02-4.045c-.065-3.122-.055-6.248,0-9.37a3.677,3.677,0,0,1,2.956-3.8,11.67,11.67,0,0,1,2.37-.224c2.6,0,5.2,0,7.794.079a3.82,3.82,0,0,1,4.055,4.121C1162.907,72.422,1162.877,75.494,1162.848,78.564Z" transform="translate(-1143.65 -63.198)" fill="#fff"/>
    <path id="Caminho_594" data-name="Caminho 594" d="M1204.423,80.541a1.322,1.322,0,0,1-1.306-1.275,1.282,1.282,0,0,1,1.266-1.3,1.235,1.235,0,0,1,1.287,1.255A1.284,1.284,0,0,1,1204.423,80.541Z" transform="translate(-1188.138 -74.249)" fill="#fff"/>
    <path id="Caminho_595" data-name="Caminho 595" d="M1169.634,83.914a5.5,5.5,0,1,0,5.4,5.548A5.433,5.433,0,0,0,1169.634,83.914Zm-.056,9.049a3.553,3.553,0,1,1,3.535-3.548A3.5,3.5,0,0,1,1169.578,92.963Z" transform="translate(-1158.991 -78.696)" fill="#fff"/>
  </g>
</svg>
