<svg id="Grupo_31251" data-name="Grupo 31251" xmlns="http://www.w3.org/2000/svg" width="38" height="38" viewBox="0 0 38 38">
  <g id="Grupo_287" data-name="Grupo 287">
    <path id="Caminho_589" data-name="Caminho 589" d="M1308.8,68.312a19,19,0,1,1,19-19A19.022,19.022,0,0,1,1308.8,68.312Zm0-35.985a16.985,16.985,0,1,0,16.985,16.985A17,17,0,0,0,1308.8,32.327Z" transform="translate(-1289.802 -30.312)" fill="#fff"/>
  </g>
  <g id="Grupo_288" data-name="Grupo 288" transform="translate(10.036 8.625)">
    <path id="Caminho_590" data-name="Caminho 590" d="M1329.968,70.971h4.012V83.878h-4.012Zm2.007-6.415a2.326,2.326,0,1,1-2.326,2.325,2.326,2.326,0,0,1,2.326-2.325" transform="translate(-1329.649 -64.556)" fill="#fff"/>
    <path id="Caminho_591" data-name="Caminho 591" d="M1356.834,89.074h3.848v1.764h.053a4.215,4.215,0,0,1,3.8-2.084c4.062,0,4.812,2.673,4.812,6.148v7.079h-4.008V95.7c0-1.5-.028-3.422-2.085-3.422-2.087,0-2.407,1.63-2.407,3.314v6.385h-4.008Z" transform="translate(-1349.987 -82.658)" fill="#fff"/>
  </g>
</svg>
