<svg id="Grupo_286" data-name="Grupo 286" xmlns="http://www.w3.org/2000/svg" width="38" height="38" viewBox="0 0 38 38">
  <g id="Grupo_285" data-name="Grupo 285">
    <path id="Caminho_587" data-name="Caminho 587" d="M1488.273,68.312a19,19,0,1,1,19-19A19.021,19.021,0,0,1,1488.273,68.312Zm0-35.985a16.985,16.985,0,1,0,16.985,16.985A17,17,0,0,0,1488.273,32.327Z" transform="translate(-1469.273 -30.312)" fill="#fff"/>
  </g>
  <path id="Caminho_588" data-name="Caminho 588" d="M1518.985,77.319h-9.852c-5.393,0-5.393,1.536-5.393,5.314v3.692c0,3.593.764,5.314,5.393,5.314h9.852c4.181,0,5.393-1.006,5.393-5.314V82.633C1524.377,78.656,1524.174,77.319,1518.985,77.319Zm-7.034,9.966v-5.8l5.563,2.888Z" transform="translate(-1495.059 -65.479)" fill="#fff"/>
</svg>
